<?xml version="1.0" encoding="UTF-8" standalone="no"?>
<!DOCTYPE svg PUBLIC "-//W3C//DTD SVG 1.1//EN"
 "http://www.w3.org/Graphics/SVG/1.1/DTD/svg11.dtd">
<!-- Generated by graphviz version 9.0.0 (0)
 -->
<!-- Pages: 1 -->
<svg width="2461pt" height="1755pt"
 viewBox="0.00 0.00 2461.44 1755.00" xmlns="http://www.w3.org/2000/svg" xmlns:xlink="http://www.w3.org/1999/xlink">
<g id="graph0" class="graph" transform="scale(1 1) rotate(0) translate(4 1751)">
<polygon fill="white" stroke="none" points="-4,4 -4,-1751 2457.44,-1751 2457.44,4 -4,4"/>
<g id="clust1" class="cluster">
<title>cluster_0</title>
<polygon fill="none" stroke="black" stroke-dasharray="5,2" points="503.44,-437 503.44,-1597 2271.44,-1597 2271.44,-437 503.44,-437"/>
<text text-anchor="middle" x="1387.44" y="-1579.7" font-family="monospace" font-size="14.00">SCC0</text>
</g>
<!-- 0 -->
<g id="node1" class="node">
<title>0</title>
<polygon fill="none" stroke="black" points="234.69,-1747 136.19,-1747 136.19,-1694 234.69,-1694 234.69,-1747"/>
<text text-anchor="middle" x="185.44" y="-1729.7" font-family="monospace" font-size="14.00">main</text>
<text text-anchor="middle" x="185.44" y="-1714.7" font-family="monospace" font-size="14.00">max &gt;= 220</text>
<text text-anchor="middle" x="185.44" y="-1699.7" font-family="monospace" font-size="14.00">local = 8</text>
</g>
<!-- 1 -->
<g id="node2" class="node">
<title>1</title>
<polygon fill="none" stroke="black" points="157.57,-1658 67.32,-1658 67.32,-1605 157.57,-1605 157.57,-1658"/>
<text text-anchor="middle" x="112.44" y="-1640.7" font-family="monospace" font-size="14.00">__nop</text>
<text text-anchor="middle" x="112.44" y="-1625.7" font-family="monospace" font-size="14.00">max = 0</text>
<text text-anchor="middle" x="112.44" y="-1610.7" font-family="monospace" font-size="14.00">local = 0</text>
</g>
<!-- 0&#45;&gt;1 -->
<g id="edge1" class="edge">
<title>0&#45;&gt;1</title>
<path fill="none" stroke="black" d="M163.93,-1693.87C156.87,-1685.45 148.9,-1675.95 141.37,-1666.98"/>
<polygon fill="black" stroke="black" points="144.13,-1664.82 135.02,-1659.41 138.77,-1669.32 144.13,-1664.82"/>
</g>
<!-- 2 -->
<g id="node3" class="node">
<title>2</title>
<polygon fill="none" stroke="black" points="1059.82,-1658 623.07,-1658 623.07,-1605 1059.82,-1605 1059.82,-1658"/>
<text text-anchor="middle" x="841.44" y="-1640.7" font-family="monospace" font-size="14.00">minimal::app::rtic_ext::main::__rtic_init_resources</text>
<text text-anchor="middle" x="841.44" y="-1625.7" font-family="monospace" font-size="14.00">max &gt;= 212</text>
<text text-anchor="middle" x="841.44" y="-1610.7" font-family="monospace" font-size="14.00">local = 16</text>
</g>
<!-- 0&#45;&gt;2 -->
<g id="edge2" class="edge">
<title>0&#45;&gt;2</title>
<path fill="none" stroke="black" d="M235.02,-1712.93C319,-1701.79 493.84,-1678.6 634.29,-1659.97"/>
<polygon fill="black" stroke="black" points="634.67,-1663.45 644.13,-1658.67 633.75,-1656.51 634.67,-1663.45"/>
</g>
<!-- 3 -->
<g id="node4" class="node">
<title>3</title>
<polygon fill="none" stroke="black" points="230.57,-1032 140.32,-1032 140.32,-979 230.57,-979 230.57,-1032"/>
<text text-anchor="middle" x="185.44" y="-1014.7" font-family="monospace" font-size="14.00">__cpsid</text>
<text text-anchor="middle" x="185.44" y="-999.7" font-family="monospace" font-size="14.00">max = 0</text>
<text text-anchor="middle" x="185.44" y="-984.7" font-family="monospace" font-size="14.00">local = 0</text>
</g>
<!-- 0&#45;&gt;3 -->
<g id="edge3" class="edge">
<title>0&#45;&gt;3</title>
<path fill="none" stroke="black" d="M185.44,-1693.71C185.44,-1658.93 185.44,-1595.04 185.44,-1540.5 185.44,-1540.5 185.44,-1540.5 185.44,-1182.5 185.44,-1134.6 185.44,-1079.36 185.44,-1043.73"/>
<polygon fill="black" stroke="black" points="188.94,-1043.96 185.44,-1033.96 181.94,-1043.96 188.94,-1043.96"/>
</g>
<!-- 2&#45;&gt;3 -->
<g id="edge5" class="edge">
<title>2&#45;&gt;3</title>
<path fill="none" stroke="black" d="M622.75,-1620.64C552.76,-1615.54 484.99,-1608 452.44,-1597 338.21,-1558.39 223.44,-1572.08 223.44,-1451.5 223.44,-1451.5 223.44,-1451.5 223.44,-1182.5 223.44,-1133.42 209.15,-1078.34 198.09,-1043.08"/>
<polygon fill="black" stroke="black" points="201.5,-1042.25 195.1,-1033.8 194.84,-1044.4 201.5,-1042.25"/>
</g>
<!-- 4 -->
<g id="node5" class="node">
<title>4</title>
<polygon fill="none" stroke="black" points="495.57,-1477 405.32,-1477 405.32,-1424 495.57,-1424 495.57,-1477"/>
<text text-anchor="middle" x="450.44" y="-1459.7" font-family="monospace" font-size="14.00">__cpsie</text>
<text text-anchor="middle" x="450.44" y="-1444.7" font-family="monospace" font-size="14.00">max = 0</text>
<text text-anchor="middle" x="450.44" y="-1429.7" font-family="monospace" font-size="14.00">local = 0</text>
</g>
<!-- 2&#45;&gt;4 -->
<g id="edge4" class="edge">
<title>2&#45;&gt;4</title>
<path fill="none" stroke="black" d="M622.64,-1618.2C562.61,-1612.99 510.77,-1606 499.44,-1597 466.78,-1571.03 455.74,-1522.41 452.09,-1488.56"/>
<polygon fill="black" stroke="black" points="455.6,-1488.42 451.22,-1478.77 448.62,-1489.04 455.6,-1488.42"/>
</g>
<!-- 5 -->
<g id="node6" class="node">
<title>5</title>
<polygon fill="none" stroke="black" points="2387.82,-1032 2281.07,-1032 2281.07,-979 2387.82,-979 2387.82,-1032"/>
<text text-anchor="middle" x="2334.44" y="-1014.7" font-family="monospace" font-size="14.00">__primask_r</text>
<text text-anchor="middle" x="2334.44" y="-999.7" font-family="monospace" font-size="14.00">max = 0</text>
<text text-anchor="middle" x="2334.44" y="-984.7" font-family="monospace" font-size="14.00">local = 0</text>
</g>
<!-- 2&#45;&gt;5 -->
<g id="edge6" class="edge">
<title>2&#45;&gt;5</title>
<path fill="none" stroke="black" d="M1059.95,-1628.75C1455.55,-1625.13 2251.98,-1615.56 2275.44,-1597 2327.86,-1555.53 2313.44,-1518.34 2313.44,-1451.5 2313.44,-1451.5 2313.44,-1451.5 2313.44,-1182.5 2313.44,-1134.26 2321.32,-1079.09 2327.42,-1043.58"/>
<polygon fill="black" stroke="black" points="2330.85,-1044.28 2329.15,-1033.82 2323.96,-1043.06 2330.85,-1044.28"/>
</g>
<!-- 6 -->
<g id="node7" class="node">
<title>6</title>
<polygon fill="none" stroke="black" points="907.19,-1566 775.69,-1566 775.69,-1513 907.19,-1513 907.19,-1566"/>
<text text-anchor="middle" x="841.44" y="-1548.7" font-family="monospace" font-size="14.00">_defmt_release</text>
<text text-anchor="middle" x="841.44" y="-1533.7" font-family="monospace" font-size="14.00">max &gt;= 196</text>
<text text-anchor="middle" x="841.44" y="-1518.7" font-family="monospace" font-size="14.00">local = 32</text>
</g>
<!-- 2&#45;&gt;6 -->
<g id="edge7" class="edge">
<title>2&#45;&gt;6</title>
<path fill="none" stroke="black" d="M841.44,-1604.95C841.44,-1596.47 841.44,-1586.86 841.44,-1577.68"/>
<polygon fill="black" stroke="black" points="844.94,-1577.94 841.44,-1567.94 837.94,-1577.94 844.94,-1577.94"/>
</g>
<!-- 7 -->
<g id="node8" class="node">
<title>7</title>
<polygon fill="none" stroke="black" points="2263.07,-676 2073.82,-676 2073.82,-623 2263.07,-623 2263.07,-676"/>
<text text-anchor="middle" x="2168.44" y="-658.7" font-family="monospace" font-size="14.00">defmt::export::header</text>
<text text-anchor="middle" x="2168.44" y="-643.7" font-family="monospace" font-size="14.00">max &gt;= 196</text>
<text text-anchor="middle" x="2168.44" y="-628.7" font-family="monospace" font-size="14.00">local = 16</text>
</g>
<!-- 2&#45;&gt;7 -->
<g id="edge8" class="edge">
<title>2&#45;&gt;7</title>
<path fill="none" stroke="black" d="M1060.11,-1629.75C1455.12,-1627.81 2252.18,-1620.92 2308.44,-1597 2392.46,-1561.28 2453.44,-1542.8 2453.44,-1451.5 2453.44,-1451.5 2453.44,-1451.5 2453.44,-826.5 2453.44,-739.12 2355.26,-693.68 2274.15,-671.05"/>
<polygon fill="black" stroke="black" points="2275.37,-667.76 2264.8,-668.54 2273.55,-674.52 2275.37,-667.76"/>
</g>
<!-- 8 -->
<g id="node9" class="node">
<title>8</title>
<polygon fill="none" stroke="black" points="810.19,-1121 678.69,-1121 678.69,-1068 810.19,-1068 810.19,-1121"/>
<text text-anchor="middle" x="744.44" y="-1103.7" font-family="monospace" font-size="14.00">_defmt_acquire</text>
<text text-anchor="middle" x="744.44" y="-1088.7" font-family="monospace" font-size="14.00">max &gt;= 196</text>
<text text-anchor="middle" x="744.44" y="-1073.7" font-family="monospace" font-size="14.00">local = 40</text>
</g>
<!-- 2&#45;&gt;8 -->
<g id="edge9" class="edge">
<title>2&#45;&gt;8</title>
<path fill="none" stroke="black" d="M905.86,-1604.62C909.57,-1602.25 913.14,-1599.71 916.44,-1597 977.68,-1546.72 1019.44,-1530.73 1019.44,-1451.5 1019.44,-1451.5 1019.44,-1451.5 1019.44,-1271.5 1019.44,-1176.97 902.75,-1130.91 821.39,-1110.29"/>
<polygon fill="black" stroke="black" points="822.68,-1107 812.13,-1108.02 821.01,-1113.8 822.68,-1107"/>
</g>
<!-- 6&#45;&gt;4 -->
<g id="edge68" class="edge">
<title>6&#45;&gt;4</title>
<path fill="none" stroke="black" d="M775.35,-1532.59C707.96,-1525.24 600.69,-1509.91 506.69,-1479.33"/>
<polygon fill="black" stroke="black" points="507.92,-1476.04 497.32,-1476.2 505.7,-1482.68 507.92,-1476.04"/>
</g>
<!-- 9 -->
<g id="node10" class="node">
<title>9</title>
<polygon fill="none" stroke="black" stroke-dasharray="5,2" points="2015.94,-409 1834.94,-409 1834.94,-356 2015.94,-356 2015.94,-409"/>
<text text-anchor="middle" x="1925.44" y="-391.7" font-family="monospace" font-size="14.00">i32 (ptr, ptr, i32)*</text>
<text text-anchor="middle" x="1925.44" y="-376.7" font-family="monospace" font-size="14.00">max = 92</text>
<text text-anchor="middle" x="1925.44" y="-361.7" font-family="monospace" font-size="14.00">local = 0</text>
</g>
<!-- 6&#45;&gt;9 -->
<g id="edge67" class="edge">
<title>6&#45;&gt;9</title>
<path fill="none" stroke="black" d="M907.57,-1538.17C1206.31,-1535.81 2415.44,-1516.74 2415.44,-1362.5 2415.44,-1362.5 2415.44,-1362.5 2415.44,-559.5 2415.44,-477.74 2170.73,-423.64 2027.18,-398.94"/>
<polygon fill="black" stroke="black" points="2028.11,-395.55 2017.66,-397.32 2026.94,-402.45 2028.11,-395.55"/>
</g>
<!-- 10 -->
<g id="node11" class="node">
<title>10</title>
<polygon fill="none" stroke="black" points="955.19,-1477 559.69,-1477 559.69,-1424 955.19,-1424 955.19,-1477"/>
<text text-anchor="middle" x="757.44" y="-1459.7" font-family="monospace" font-size="14.00">core::slice::index::slice_start_index_len_fail</text>
<text text-anchor="middle" x="757.44" y="-1444.7" font-family="monospace" font-size="14.00">max &gt;= 196</text>
<text text-anchor="middle" x="757.44" y="-1429.7" font-family="monospace" font-size="14.00">local = 8</text>
</g>
<!-- 6&#45;&gt;10 -->
<g id="edge69" class="edge">
<title>6&#45;&gt;10</title>
<path fill="none" stroke="black" d="M816.69,-1512.87C808.39,-1504.27 799.01,-1494.55 790.19,-1485.42"/>
<polygon fill="black" stroke="black" points="792.82,-1483.1 783.35,-1478.34 787.78,-1487.96 792.82,-1483.1"/>
</g>
<!-- 15 -->
<g id="node16" class="node">
<title>15</title>
<polygon fill="none" stroke="black" points="1982.94,-498 1867.94,-498 1867.94,-445 1982.94,-445 1982.94,-498"/>
<text text-anchor="middle" x="1925.44" y="-480.7" font-family="monospace" font-size="14.00">_defmt_write</text>
<text text-anchor="middle" x="1925.44" y="-465.7" font-family="monospace" font-size="14.00">max &gt;= 196</text>
<text text-anchor="middle" x="1925.44" y="-450.7" font-family="monospace" font-size="14.00">local = 64</text>
</g>
<!-- 7&#45;&gt;15 -->
<g id="edge24" class="edge">
<title>7&#45;&gt;15</title>
<path fill="none" stroke="black" d="M2125.47,-622.57C2111.49,-612.68 2096.69,-600.5 2085.44,-587 2068.65,-566.84 2078.23,-552.31 2059.44,-534 2041.16,-516.18 2016.79,-502.92 1993.84,-493.36"/>
<polygon fill="black" stroke="black" points="1995.42,-490.22 1984.83,-489.78 1992.84,-496.72 1995.42,-490.22"/>
</g>
<!-- 16 -->
<g id="node17" class="node">
<title>16</title>
<polygon fill="none" stroke="black" points="2242.44,-587 2094.44,-587 2094.44,-534 2242.44,-534 2242.44,-587"/>
<text text-anchor="middle" x="2168.44" y="-569.7" font-family="monospace" font-size="14.00">_defmt_timestamp</text>
<text text-anchor="middle" x="2168.44" y="-554.7" font-family="monospace" font-size="14.00">max &gt;= 196</text>
<text text-anchor="middle" x="2168.44" y="-539.7" font-family="monospace" font-size="14.00">local = 16</text>
</g>
<!-- 7&#45;&gt;16 -->
<g id="edge23" class="edge">
<title>7&#45;&gt;16</title>
<path fill="none" stroke="black" d="M2168.44,-622.87C2168.44,-615.24 2168.44,-606.72 2168.44,-598.51"/>
<polygon fill="black" stroke="black" points="2171.94,-598.76 2168.44,-588.76 2164.94,-598.76 2171.94,-598.76"/>
</g>
<!-- 8&#45;&gt;3 -->
<g id="edge13" class="edge">
<title>8&#45;&gt;3</title>
<path fill="none" stroke="black" d="M678.64,-1086.67C558.92,-1074.09 311.99,-1047.32 241.96,-1031.96"/>
<polygon fill="black" stroke="black" points="243.03,-1028.62 232.48,-1029.6 241.33,-1035.42 243.03,-1028.62"/>
</g>
<!-- 8&#45;&gt;5 -->
<g id="edge14" class="edge">
<title>8&#45;&gt;5</title>
<path fill="none" stroke="black" d="M810.35,-1091.01C1087.11,-1080.56 2146.48,-1040.34 2269.4,-1031.73"/>
<polygon fill="black" stroke="black" points="2269.56,-1035.24 2279.19,-1030.81 2268.9,-1028.27 2269.56,-1035.24"/>
</g>
<!-- 8&#45;&gt;9 -->
<g id="edge10" class="edge">
<title>8&#45;&gt;9</title>
<path fill="none" stroke="black" d="M683.37,-1067.57C619.26,-1041.37 514.98,-1001.63 421.44,-979 305.06,-950.85 253.12,-1010.83 154.44,-943 140.51,-933.42 12.63,-692.38 8.44,-676 2.61,-653.18 -6.69,-641.05 8.44,-623 126.31,-482.35 1443.64,-407.15 1823.49,-388.28"/>
<polygon fill="black" stroke="black" points="1823.4,-391.79 1833.21,-387.8 1823.05,-384.8 1823.4,-391.79"/>
</g>
<!-- 8&#45;&gt;10 -->
<g id="edge11" class="edge">
<title>8&#45;&gt;10</title>
<path fill="none" stroke="black" d="M698.39,-1121.43C613.32,-1172.6 446.87,-1290.1 522.44,-1388 532.54,-1401.08 558.49,-1411.92 589.64,-1420.66"/>
<polygon fill="black" stroke="black" points="588.35,-1423.94 598.92,-1423.15 590.17,-1417.18 588.35,-1423.94"/>
</g>
<!-- 11 -->
<g id="node12" class="node">
<title>11</title>
<polygon fill="none" stroke="black" points="859.69,-1299 629.19,-1299 629.19,-1246 859.69,-1246 859.69,-1299"/>
<text text-anchor="middle" x="744.44" y="-1281.7" font-family="monospace" font-size="14.00">core::panicking::panic_fmt</text>
<text text-anchor="middle" x="744.44" y="-1266.7" font-family="monospace" font-size="14.00">max &gt;= 196</text>
<text text-anchor="middle" x="744.44" y="-1251.7" font-family="monospace" font-size="14.00">local = 32</text>
</g>
<!-- 8&#45;&gt;11 -->
<g id="edge12" class="edge">
<title>8&#45;&gt;11</title>
<path fill="none" stroke="black" d="M744.44,-1121.29C744.44,-1151.06 744.44,-1200.28 744.44,-1234.22"/>
<polygon fill="black" stroke="black" points="740.94,-1234.02 744.44,-1244.02 747.94,-1234.02 740.94,-1234.02"/>
</g>
<!-- 18 -->
<g id="node19" class="node">
<title>18</title>
<polygon fill="none" stroke="black" points="1922.82,-320 1552.07,-320 1552.07,-267 1922.82,-267 1922.82,-320"/>
<text text-anchor="middle" x="1737.44" y="-302.7" font-family="monospace" font-size="14.00">defmt_brtt::rtt::Channel::nonblocking_write</text>
<text text-anchor="middle" x="1737.44" y="-287.7" font-family="monospace" font-size="14.00">max = 92</text>
<text text-anchor="middle" x="1737.44" y="-272.7" font-family="monospace" font-size="14.00">local = 32</text>
</g>
<!-- 9&#45;&gt;18 -->
<g id="edge29" class="edge">
<title>9&#45;&gt;18</title>
<path fill="none" stroke="black" d="M1869.29,-355.51C1848.65,-345.96 1825.08,-335.06 1803.64,-325.13"/>
<polygon fill="black" stroke="black" points="1805.22,-322.01 1794.68,-320.99 1802.28,-328.36 1805.22,-322.01"/>
</g>
<!-- 19 -->
<g id="node20" class="node">
<title>19</title>
<polygon fill="none" stroke="black" points="2286.44,-320 1940.44,-320 1940.44,-267 2286.44,-267 2286.44,-320"/>
<text text-anchor="middle" x="2113.44" y="-302.7" font-family="monospace" font-size="14.00">defmt_brtt::rtt::Channel::blocking_write</text>
<text text-anchor="middle" x="2113.44" y="-287.7" font-family="monospace" font-size="14.00">max = 92</text>
<text text-anchor="middle" x="2113.44" y="-272.7" font-family="monospace" font-size="14.00">local = 32</text>
</g>
<!-- 9&#45;&gt;19 -->
<g id="edge30" class="edge">
<title>9&#45;&gt;19</title>
<path fill="none" stroke="black" d="M1981.59,-355.51C2002.24,-345.96 2025.8,-335.06 2047.24,-325.13"/>
<polygon fill="black" stroke="black" points="2048.6,-328.36 2056.21,-320.99 2045.66,-322.01 2048.6,-328.36"/>
</g>
<!-- 17 -->
<g id="node18" class="node">
<title>17</title>
<polygon fill="none" stroke="black" points="951.57,-1388 531.32,-1388 531.32,-1335 951.57,-1335 951.57,-1388"/>
<text text-anchor="middle" x="741.44" y="-1370.7" font-family="monospace" font-size="14.00">core::slice::index::slice_start_index_len_fail_rt</text>
<text text-anchor="middle" x="741.44" y="-1355.7" font-family="monospace" font-size="14.00">max &gt;= 196</text>
<text text-anchor="middle" x="741.44" y="-1340.7" font-family="monospace" font-size="14.00">local = 56</text>
</g>
<!-- 10&#45;&gt;17 -->
<g id="edge27" class="edge">
<title>10&#45;&gt;17</title>
<path fill="none" stroke="black" d="M752.73,-1423.87C751.32,-1416.24 749.76,-1407.72 748.25,-1399.51"/>
<polygon fill="black" stroke="black" points="751.7,-1398.94 746.45,-1389.74 744.82,-1400.21 751.7,-1398.94"/>
</g>
<!-- 12 -->
<g id="node13" class="node">
<title>12</title>
<polygon fill="none" stroke="black" points="928.57,-1210 772.32,-1210 772.32,-1157 928.57,-1157 928.57,-1210"/>
<text text-anchor="middle" x="850.44" y="-1192.7" font-family="monospace" font-size="14.00">rust_begin_unwind</text>
<text text-anchor="middle" x="850.44" y="-1177.7" font-family="monospace" font-size="14.00">max &gt;= 196</text>
<text text-anchor="middle" x="850.44" y="-1162.7" font-family="monospace" font-size="14.00">local = 56</text>
</g>
<!-- 11&#45;&gt;12 -->
<g id="edge15" class="edge">
<title>11&#45;&gt;12</title>
<path fill="none" stroke="black" d="M775.96,-1245.63C786.65,-1236.86 798.74,-1226.93 810.03,-1217.67"/>
<polygon fill="black" stroke="black" points="812.18,-1220.43 817.69,-1211.38 807.74,-1215.02 812.18,-1220.43"/>
</g>
<!-- 12&#45;&gt;3 -->
<g id="edge22" class="edge">
<title>12&#45;&gt;3</title>
<path fill="none" stroke="black" d="M772.07,-1181.34C636.17,-1178.13 363.33,-1166.11 280.44,-1121 253.8,-1106.5 256.79,-1091.36 237.44,-1068 230.15,-1059.2 222.21,-1049.74 214.79,-1040.96"/>
<polygon fill="black" stroke="black" points="217.68,-1038.96 208.55,-1033.59 212.34,-1043.48 217.68,-1038.96"/>
</g>
<!-- 12&#45;&gt;6 -->
<g id="edge17" class="edge">
<title>12&#45;&gt;6</title>
<path fill="none" stroke="black" d="M875.55,-1210.2C923.94,-1262.95 1020.6,-1386.13 964.44,-1477 953.64,-1494.48 936.2,-1507.16 917.8,-1516.28"/>
<polygon fill="black" stroke="black" points="916.53,-1513.02 908.9,-1520.37 919.45,-1519.38 916.53,-1513.02"/>
</g>
<!-- 12&#45;&gt;7 -->
<g id="edge20" class="edge">
<title>12&#45;&gt;7</title>
<path fill="none" stroke="black" d="M928.94,-1181.81C1216.55,-1178.92 2198.61,-1165.79 2247.44,-1121 2285.26,-1086.31 2262.44,-1057.82 2262.44,-1006.5 2262.44,-1006.5 2262.44,-1006.5 2262.44,-826.5 2262.44,-775.18 2272.93,-756.55 2247.44,-712 2241.29,-701.26 2232.46,-691.73 2222.9,-683.58"/>
<polygon fill="black" stroke="black" points="2225.16,-680.91 2215.16,-677.43 2220.81,-686.39 2225.16,-680.91"/>
</g>
<!-- 12&#45;&gt;8 -->
<g id="edge21" class="edge">
<title>12&#45;&gt;8</title>
<path fill="none" stroke="black" d="M818.93,-1156.63C808.24,-1147.86 796.14,-1137.93 784.86,-1128.67"/>
<polygon fill="black" stroke="black" points="787.14,-1126.02 777.19,-1122.38 782.7,-1131.43 787.14,-1126.02"/>
</g>
<!-- 13 -->
<g id="node14" class="node">
<title>13</title>
<polygon fill="none" stroke="black" points="495.32,-1121 289.57,-1121 289.57,-1068 495.32,-1068 495.32,-1121"/>
<text text-anchor="middle" x="392.44" y="-1103.7" font-family="monospace" font-size="14.00">panic_probe::hard_fault</text>
<text text-anchor="middle" x="392.44" y="-1088.7" font-family="monospace" font-size="14.00">max = 16</text>
<text text-anchor="middle" x="392.44" y="-1073.7" font-family="monospace" font-size="14.00">local = 8</text>
</g>
<!-- 12&#45;&gt;13 -->
<g id="edge16" class="edge">
<title>12&#45;&gt;13</title>
<path fill="none" stroke="black" d="M772.12,-1170.17C703.53,-1159.05 600.92,-1141.66 506.9,-1122.52"/>
<polygon fill="black" stroke="black" points="507.76,-1119.12 497.26,-1120.54 506.35,-1125.98 507.76,-1119.12"/>
</g>
<!-- 14 -->
<g id="node15" class="node">
<title>14</title>
<polygon fill="none" stroke="black" points="1597.44,-1121 1449.44,-1121 1449.44,-1068 1597.44,-1068 1597.44,-1121"/>
<text text-anchor="middle" x="1523.44" y="-1103.7" font-family="monospace" font-size="14.00">core::fmt::write</text>
<text text-anchor="middle" x="1523.44" y="-1088.7" font-family="monospace" font-size="14.00">max &gt;= 196</text>
<text text-anchor="middle" x="1523.44" y="-1073.7" font-family="monospace" font-size="14.00">local = 88</text>
</g>
<!-- 12&#45;&gt;14 -->
<g id="edge18" class="edge">
<title>12&#45;&gt;14</title>
<path fill="none" stroke="black" d="M928.96,-1172.35C1056.15,-1155.91 1306.22,-1123.58 1437.82,-1106.57"/>
<polygon fill="black" stroke="black" points="1438.05,-1110.07 1447.52,-1105.31 1437.15,-1103.13 1438.05,-1110.07"/>
</g>
<!-- 12&#45;&gt;15 -->
<g id="edge19" class="edge">
<title>12&#45;&gt;15</title>
<path fill="none" stroke="black" d="M929.02,-1180.9C1223.16,-1173.87 2242.44,-1139.9 2242.44,-1006.5 2242.44,-1006.5 2242.44,-1006.5 2242.44,-826.5 2242.44,-779.69 2209.08,-777.96 2119.44,-712 2095.91,-694.68 2080.1,-700.67 2064.44,-676 2030.29,-622.19 2081.31,-585.99 2044.44,-534 2031.96,-516.39 2012.88,-503.47 1993.63,-494.15"/>
<polygon fill="black" stroke="black" points="1995.21,-491.02 1984.66,-490.09 1992.33,-497.4 1995.21,-491.02"/>
</g>
<!-- 41 -->
<g id="node42" class="node">
<title>41</title>
<polygon fill="none" stroke="black" points="412.69,-1032 248.19,-1032 248.19,-979 412.69,-979 412.69,-1032"/>
<text text-anchor="middle" x="330.44" y="-1014.7" font-family="monospace" font-size="14.00">cortex_m::asm::udf</text>
<text text-anchor="middle" x="330.44" y="-999.7" font-family="monospace" font-size="14.00">max = 8</text>
<text text-anchor="middle" x="330.44" y="-984.7" font-family="monospace" font-size="14.00">local = 8</text>
</g>
<!-- 13&#45;&gt;41 -->
<g id="edge70" class="edge">
<title>13&#45;&gt;41</title>
<path fill="none" stroke="black" d="M374.18,-1067.87C368.3,-1059.62 361.68,-1050.34 355.41,-1041.54"/>
<polygon fill="black" stroke="black" points="358.32,-1039.59 349.67,-1033.48 352.62,-1043.66 358.32,-1039.59"/>
</g>
<!-- 23 -->
<g id="node24" class="node">
<title>23</title>
<polygon fill="none" stroke="black" stroke-dasharray="5,2" points="1589.19,-1032 1457.69,-1032 1457.69,-979 1589.19,-979 1589.19,-1032"/>
<text text-anchor="middle" x="1523.44" y="-1014.7" font-family="monospace" font-size="14.00">i1 (ptr, ptr)*</text>
<text text-anchor="middle" x="1523.44" y="-999.7" font-family="monospace" font-size="14.00">max &gt;= 196</text>
<text text-anchor="middle" x="1523.44" y="-984.7" font-family="monospace" font-size="14.00">local = 0</text>
</g>
<!-- 14&#45;&gt;23 -->
<g id="edge36" class="edge">
<title>14&#45;&gt;23</title>
<path fill="none" stroke="black" d="M1523.44,-1067.87C1523.44,-1060.24 1523.44,-1051.72 1523.44,-1043.51"/>
<polygon fill="black" stroke="black" points="1526.94,-1043.76 1523.44,-1033.76 1519.94,-1043.76 1526.94,-1043.76"/>
</g>
<!-- 24 -->
<g id="node25" class="node">
<title>24</title>
<polygon fill="none" stroke="black" stroke-dasharray="5,2" points="1882.82,-676 1710.07,-676 1710.07,-623 1882.82,-623 1882.82,-676"/>
<text text-anchor="middle" x="1796.44" y="-658.7" font-family="monospace" font-size="14.00">i1 (ptr, ptr, i32)*</text>
<text text-anchor="middle" x="1796.44" y="-643.7" font-family="monospace" font-size="14.00">max &gt;= 196</text>
<text text-anchor="middle" x="1796.44" y="-628.7" font-family="monospace" font-size="14.00">local = 0</text>
</g>
<!-- 14&#45;&gt;24 -->
<g id="edge37" class="edge">
<title>14&#45;&gt;24</title>
<path fill="none" stroke="black" d="M1597.92,-1090.48C1778.03,-1081.16 2222.44,-1045.22 2222.44,-917.5 2222.44,-917.5 2222.44,-917.5 2222.44,-826.5 2222.44,-755.91 2020.12,-699.03 1894.33,-670.48"/>
<polygon fill="black" stroke="black" points="1895.16,-667.08 1884.64,-668.31 1893.63,-673.91 1895.16,-667.08"/>
</g>
<!-- 15&#45;&gt;9 -->
<g id="edge25" class="edge">
<title>15&#45;&gt;9</title>
<path fill="none" stroke="black" d="M1925.44,-444.87C1925.44,-437.24 1925.44,-428.72 1925.44,-420.51"/>
<polygon fill="black" stroke="black" points="1928.94,-420.76 1925.44,-410.76 1921.94,-420.76 1928.94,-420.76"/>
</g>
<!-- 15&#45;&gt;10 -->
<g id="edge26" class="edge">
<title>15&#45;&gt;10</title>
<path fill="none" stroke="black" d="M1867.63,-475.51C1731.27,-483.01 1392.87,-504.12 1283.44,-534 923.23,-632.35 722.88,-574.95 522.44,-890 509.8,-909.87 509.41,-923.38 522.44,-943 637.25,-1115.88 833.15,-977.59 937.44,-1157 1003.72,-1271.01 989.96,-1348.21 960.44,-1388 951.23,-1400.41 926.24,-1411.3 896.8,-1420.32"/>
<polygon fill="black" stroke="black" points="895.83,-1416.96 887.22,-1423.13 897.81,-1423.67 895.83,-1416.96"/>
</g>
<!-- 16&#45;&gt;15 -->
<g id="edge35" class="edge">
<title>16&#45;&gt;15</title>
<path fill="none" stroke="black" d="M2095.86,-533.51C2063.57,-521.95 2025.75,-508.41 1993.94,-497.03"/>
<polygon fill="black" stroke="black" points="1995.43,-493.84 1984.83,-493.76 1993.07,-500.43 1995.43,-493.84"/>
</g>
<!-- 17&#45;&gt;11 -->
<g id="edge28" class="edge">
<title>17&#45;&gt;11</title>
<path fill="none" stroke="black" d="M742.33,-1334.87C742.59,-1327.24 742.88,-1318.72 743.17,-1310.51"/>
<polygon fill="black" stroke="black" points="746.65,-1310.88 743.5,-1300.76 739.66,-1310.64 746.65,-1310.88"/>
</g>
<!-- 20 -->
<g id="node21" class="node">
<title>20</title>
<polygon fill="none" stroke="black" points="1991.19,-231 1859.69,-231 1859.69,-178 1991.19,-178 1991.19,-231"/>
<text text-anchor="middle" x="1925.44" y="-213.7" font-family="monospace" font-size="14.00">__aeabi_memcpy</text>
<text text-anchor="middle" x="1925.44" y="-198.7" font-family="monospace" font-size="14.00">max = 60</text>
<text text-anchor="middle" x="1925.44" y="-183.7" font-family="monospace" font-size="14.00">local = 8</text>
</g>
<!-- 18&#45;&gt;20 -->
<g id="edge34" class="edge">
<title>18&#45;&gt;20</title>
<path fill="none" stroke="black" d="M1793.59,-266.51C1814.24,-256.96 1837.8,-246.06 1859.24,-236.13"/>
<polygon fill="black" stroke="black" points="1860.6,-239.36 1868.21,-231.99 1857.66,-233.01 1860.6,-239.36"/>
</g>
<!-- 19&#45;&gt;20 -->
<g id="edge31" class="edge">
<title>19&#45;&gt;20</title>
<path fill="none" stroke="black" d="M2057.29,-266.51C2036.65,-256.96 2013.08,-246.06 1991.64,-236.13"/>
<polygon fill="black" stroke="black" points="1993.22,-233.01 1982.68,-231.99 1990.28,-239.36 1993.22,-233.01"/>
</g>
<!-- 21 -->
<g id="node22" class="node">
<title>21</title>
<polygon fill="none" stroke="black" points="2090.19,-142 1760.69,-142 1760.69,-89 2090.19,-89 2090.19,-142"/>
<text text-anchor="middle" x="1925.44" y="-124.7" font-family="monospace" font-size="14.00">compiler_builtins::arm::__aeabi_memcpy</text>
<text text-anchor="middle" x="1925.44" y="-109.7" font-family="monospace" font-size="14.00">max = 52</text>
<text text-anchor="middle" x="1925.44" y="-94.7" font-family="monospace" font-size="14.00">local = 8</text>
</g>
<!-- 20&#45;&gt;21 -->
<g id="edge32" class="edge">
<title>20&#45;&gt;21</title>
<path fill="none" stroke="black" d="M1925.44,-177.87C1925.44,-170.24 1925.44,-161.72 1925.44,-153.51"/>
<polygon fill="black" stroke="black" points="1928.94,-153.76 1925.44,-143.76 1921.94,-153.76 1928.94,-153.76"/>
</g>
<!-- 22 -->
<g id="node23" class="node">
<title>22</title>
<polygon fill="none" stroke="black" points="2057.19,-53 1793.69,-53 1793.69,0 2057.19,0 2057.19,-53"/>
<text text-anchor="middle" x="1925.44" y="-35.7" font-family="monospace" font-size="14.00">compiler_builtins::mem::memcpy</text>
<text text-anchor="middle" x="1925.44" y="-20.7" font-family="monospace" font-size="14.00">max = 44</text>
<text text-anchor="middle" x="1925.44" y="-5.7" font-family="monospace" font-size="14.00">local = 44</text>
</g>
<!-- 21&#45;&gt;22 -->
<g id="edge33" class="edge">
<title>21&#45;&gt;22</title>
<path fill="none" stroke="black" d="M1925.44,-88.87C1925.44,-81.24 1925.44,-72.72 1925.44,-64.51"/>
<polygon fill="black" stroke="black" points="1928.94,-64.76 1925.44,-54.76 1921.94,-64.76 1928.94,-64.76"/>
</g>
<!-- 26 -->
<g id="node27" class="node">
<title>26</title>
<polygon fill="none" stroke="black" points="2203.69,-943 1775.19,-943 1775.19,-890 2203.69,-890 2203.69,-943"/>
<text text-anchor="middle" x="1989.44" y="-925.7" font-family="monospace" font-size="14.00">&lt;&amp;T as core::fmt::Display&gt;::fmt::h624688886fcfd3c9</text>
<text text-anchor="middle" x="1989.44" y="-910.7" font-family="monospace" font-size="14.00">max &gt;= 196</text>
<text text-anchor="middle" x="1989.44" y="-895.7" font-family="monospace" font-size="14.00">local = 88</text>
</g>
<!-- 23&#45;&gt;26 -->
<g id="edge40" class="edge">
<title>23&#45;&gt;26</title>
<path fill="none" stroke="black" d="M1589.22,-992.22C1653.93,-980.14 1755,-961.27 1839.39,-945.51"/>
<polygon fill="black" stroke="black" points="1839.97,-948.97 1849.16,-943.69 1838.69,-942.08 1839.97,-948.97"/>
</g>
<!-- 27 -->
<g id="node28" class="node">
<title>27</title>
<polygon fill="none" stroke="black" points="769.82,-943 531.07,-943 531.07,-890 769.82,-890 769.82,-943"/>
<text text-anchor="middle" x="650.44" y="-925.7" font-family="monospace" font-size="14.00">core::fmt::Write::write_fmt</text>
<text text-anchor="middle" x="650.44" y="-910.7" font-family="monospace" font-size="14.00">max &gt;= 196</text>
<text text-anchor="middle" x="650.44" y="-895.7" font-family="monospace" font-size="14.00">local = 8</text>
</g>
<!-- 23&#45;&gt;27 -->
<g id="edge41" class="edge">
<title>23&#45;&gt;27</title>
<path fill="none" stroke="black" d="M1457.23,-1001.54C1328.85,-995.24 1037.01,-978.28 781.56,-943.22"/>
<polygon fill="black" stroke="black" points="782.07,-939.76 771.69,-941.85 781.11,-946.69 782.07,-939.76"/>
</g>
<!-- 28 -->
<g id="node29" class="node">
<title>28</title>
<polygon fill="none" stroke="black" points="1737.69,-943 1309.19,-943 1309.19,-890 1737.69,-890 1737.69,-943"/>
<text text-anchor="middle" x="1523.44" y="-925.7" font-family="monospace" font-size="14.00">&lt;&amp;T as core::fmt::Display&gt;::fmt::h9baabd17f1a27d5b</text>
<text text-anchor="middle" x="1523.44" y="-910.7" font-family="monospace" font-size="14.00">max &gt;= 196</text>
<text text-anchor="middle" x="1523.44" y="-895.7" font-family="monospace" font-size="14.00">local = 8</text>
</g>
<!-- 23&#45;&gt;28 -->
<g id="edge42" class="edge">
<title>23&#45;&gt;28</title>
<path fill="none" stroke="black" d="M1517.23,-978.87C1516.74,-971.24 1516.59,-962.72 1516.76,-954.51"/>
<polygon fill="black" stroke="black" points="1520.25,-954.9 1517.16,-944.76 1513.25,-954.61 1520.25,-954.9"/>
</g>
<!-- 29 -->
<g id="node30" class="node">
<title>29</title>
<polygon fill="none" stroke="black" points="1970.69,-854 1542.19,-854 1542.19,-801 1970.69,-801 1970.69,-854"/>
<text text-anchor="middle" x="1756.44" y="-836.7" font-family="monospace" font-size="14.00">&lt;&amp;T as core::fmt::Display&gt;::fmt::h84913bf2743dc98f</text>
<text text-anchor="middle" x="1756.44" y="-821.7" font-family="monospace" font-size="14.00">max &gt;= 196</text>
<text text-anchor="middle" x="1756.44" y="-806.7" font-family="monospace" font-size="14.00">local = 64</text>
</g>
<!-- 23&#45;&gt;29 -->
<g id="edge43" class="edge">
<title>23&#45;&gt;29</title>
<path fill="none" stroke="black" d="M1589.48,-994.75C1647.72,-984.7 1726.36,-967.11 1746.44,-943 1764.08,-921.82 1765.6,-890.16 1763.25,-865.5"/>
<polygon fill="black" stroke="black" points="1766.76,-865.38 1762.08,-855.88 1759.82,-866.23 1766.76,-865.38"/>
</g>
<!-- 30 -->
<g id="node31" class="node">
<title>30</title>
<polygon fill="none" stroke="black" points="493.19,-943 163.69,-943 163.69,-890 493.19,-890 493.19,-943"/>
<text text-anchor="middle" x="328.44" y="-925.7" font-family="monospace" font-size="14.00">core::ops::function::FnOnce::call_once</text>
<text text-anchor="middle" x="328.44" y="-910.7" font-family="monospace" font-size="14.00">max = 0</text>
<text text-anchor="middle" x="328.44" y="-895.7" font-family="monospace" font-size="14.00">local = 0</text>
</g>
<!-- 23&#45;&gt;30 -->
<g id="edge44" class="edge">
<title>23&#45;&gt;30</title>
<path fill="none" stroke="black" d="M1457.39,-1002.55C1296.03,-997.35 868.79,-980.97 504.88,-943.54"/>
<polygon fill="black" stroke="black" points="505.4,-940.08 495.09,-942.53 504.68,-947.04 505.4,-940.08"/>
</g>
<!-- 31 -->
<g id="node32" class="node">
<title>31</title>
<polygon fill="none" stroke="black" points="1290.82,-943 788.07,-943 788.07,-890 1290.82,-890 1290.82,-943"/>
<text text-anchor="middle" x="1039.44" y="-925.7" font-family="monospace" font-size="14.00">core::fmt::num::imp::&lt;impl core::fmt::Display for u32&gt;::fmt</text>
<text text-anchor="middle" x="1039.44" y="-910.7" font-family="monospace" font-size="14.00">max &gt;= 196</text>
<text text-anchor="middle" x="1039.44" y="-895.7" font-family="monospace" font-size="14.00">local = 8</text>
</g>
<!-- 23&#45;&gt;31 -->
<g id="edge45" class="edge">
<title>23&#45;&gt;31</title>
<path fill="none" stroke="black" d="M1457.41,-992.63C1390.31,-980.57 1283.91,-961.44 1195.26,-945.51"/>
<polygon fill="black" stroke="black" points="1195.94,-942.07 1185.48,-943.75 1194.7,-948.96 1195.94,-942.07"/>
</g>
<!-- 25 -->
<g id="node26" class="node">
<title>25</title>
<polygon fill="none" stroke="black" points="2035.44,-587 1557.44,-587 1557.44,-534 2035.44,-534 2035.44,-587"/>
<text text-anchor="middle" x="1796.44" y="-569.7" font-family="monospace" font-size="14.00">&lt;defmt::export::FmtWrite as core::fmt::Write&gt;::write_str</text>
<text text-anchor="middle" x="1796.44" y="-554.7" font-family="monospace" font-size="14.00">max &gt;= 196</text>
<text text-anchor="middle" x="1796.44" y="-539.7" font-family="monospace" font-size="14.00">local = 8</text>
</g>
<!-- 24&#45;&gt;25 -->
<g id="edge38" class="edge">
<title>24&#45;&gt;25</title>
<path fill="none" stroke="black" d="M1796.44,-622.87C1796.44,-615.24 1796.44,-606.72 1796.44,-598.51"/>
<polygon fill="black" stroke="black" points="1799.94,-598.76 1796.44,-588.76 1792.94,-598.76 1799.94,-598.76"/>
</g>
<!-- 25&#45;&gt;15 -->
<g id="edge39" class="edge">
<title>25&#45;&gt;15</title>
<path fill="none" stroke="black" d="M1834.8,-533.63C1848.19,-524.6 1863.4,-514.34 1877.48,-504.85"/>
<polygon fill="black" stroke="black" points="1879.42,-507.76 1885.76,-499.26 1875.51,-501.95 1879.42,-507.76"/>
</g>
<!-- 26&#45;&gt;14 -->
<g id="edge65" class="edge">
<title>26&#45;&gt;14</title>
<path fill="none" stroke="black" d="M1920.78,-943.43C1836.04,-975.44 1692.22,-1029.75 1602.83,-1063.52"/>
<polygon fill="black" stroke="black" points="1601.74,-1060.19 1593.62,-1067 1604.21,-1066.74 1601.74,-1060.19"/>
</g>
<!-- 26&#45;&gt;24 -->
<g id="edge64" class="edge">
<title>26&#45;&gt;24</title>
<path fill="none" stroke="black" d="M1992.66,-889.81C1994.5,-865.5 1994.04,-828.72 1979.44,-801 1952.05,-749 1898.24,-708.17 1856.02,-682.23"/>
<polygon fill="black" stroke="black" points="1858.06,-679.37 1847.68,-677.22 1854.45,-685.37 1858.06,-679.37"/>
</g>
<!-- 39 -->
<g id="node40" class="node">
<title>39</title>
<polygon fill="none" stroke="black" stroke-dasharray="5,2" points="384.82,-854 278.07,-854 278.07,-801 384.82,-801 384.82,-854"/>
<text text-anchor="middle" x="331.44" y="-836.7" font-family="monospace" font-size="14.00">i128 (ptr)*</text>
<text text-anchor="middle" x="331.44" y="-821.7" font-family="monospace" font-size="14.00">max = 0</text>
<text text-anchor="middle" x="331.44" y="-806.7" font-family="monospace" font-size="14.00">local = 0</text>
</g>
<!-- 26&#45;&gt;39 -->
<g id="edge63" class="edge">
<title>26&#45;&gt;39</title>
<path fill="none" stroke="black" d="M1774.86,-892.09C1765.26,-891.33 1755.75,-890.62 1746.44,-890 1193.22,-853.04 1051.66,-903.69 499.44,-854 465.16,-850.92 427.23,-845.35 396.1,-840.2"/>
<polygon fill="black" stroke="black" points="396.89,-836.78 386.45,-838.58 395.73,-843.68 396.89,-836.78"/>
</g>
<!-- 27&#45;&gt;14 -->
<g id="edge62" class="edge">
<title>27&#45;&gt;14</title>
<path fill="none" stroke="black" d="M770.27,-941.66C949.17,-977.72 1281.73,-1044.77 1438.06,-1076.29"/>
<polygon fill="black" stroke="black" points="1437.03,-1079.65 1447.53,-1078.2 1438.42,-1072.79 1437.03,-1079.65"/>
</g>
<!-- 28&#45;&gt;23 -->
<g id="edge61" class="edge">
<title>28&#45;&gt;23</title>
<path fill="none" stroke="black" d="M1529.67,-943.25C1530.14,-950.89 1530.3,-959.41 1530.12,-967.61"/>
<polygon fill="black" stroke="black" points="1526.64,-967.22 1529.72,-977.36 1533.63,-967.51 1526.64,-967.22"/>
</g>
<!-- 29&#45;&gt;24 -->
<g id="edge59" class="edge">
<title>29&#45;&gt;24</title>
<path fill="none" stroke="black" d="M1768.66,-800.67C1773.32,-789.86 1778.26,-777.04 1781.44,-765 1788.15,-739.58 1791.93,-710.16 1794.01,-687.5"/>
<polygon fill="black" stroke="black" points="1797.47,-688.1 1794.82,-677.84 1790.5,-687.51 1797.47,-688.1"/>
</g>
<!-- 33 -->
<g id="node34" class="node">
<title>33</title>
<polygon fill="none" stroke="black" stroke-dasharray="5,2" points="1481.19,-676 1349.69,-676 1349.69,-623 1481.19,-623 1481.19,-676"/>
<text text-anchor="middle" x="1415.44" y="-658.7" font-family="monospace" font-size="14.00">i1 (ptr, i32)*</text>
<text text-anchor="middle" x="1415.44" y="-643.7" font-family="monospace" font-size="14.00">max &gt;= 196</text>
<text text-anchor="middle" x="1415.44" y="-628.7" font-family="monospace" font-size="14.00">local = 0</text>
</g>
<!-- 29&#45;&gt;33 -->
<g id="edge58" class="edge">
<title>29&#45;&gt;33</title>
<path fill="none" stroke="black" d="M1762.25,-800.73C1766.42,-774.94 1768.04,-735.79 1746.44,-712 1713.26,-675.45 1579.76,-660.36 1492.77,-654.32"/>
<polygon fill="black" stroke="black" points="1493.07,-650.83 1482.86,-653.66 1492.61,-657.82 1493.07,-650.83"/>
</g>
<!-- 35 -->
<g id="node36" class="node">
<title>35</title>
<polygon fill="none" stroke="black" points="1737.07,-765 1481.82,-765 1481.82,-712 1737.07,-712 1737.07,-765"/>
<text text-anchor="middle" x="1609.44" y="-747.7" font-family="monospace" font-size="14.00">core::fmt::Formatter::padding</text>
<text text-anchor="middle" x="1609.44" y="-732.7" font-family="monospace" font-size="14.00">max &gt;= 196</text>
<text text-anchor="middle" x="1609.44" y="-717.7" font-family="monospace" font-size="14.00">local = 32</text>
</g>
<!-- 29&#45;&gt;35 -->
<g id="edge60" class="edge">
<title>29&#45;&gt;35</title>
<path fill="none" stroke="black" d="M1712.73,-800.63C1697.03,-791.34 1679.14,-780.75 1662.71,-771.03"/>
<polygon fill="black" stroke="black" points="1664.93,-768.27 1654.54,-766.19 1661.36,-774.29 1664.93,-768.27"/>
</g>
<!-- 32 -->
<g id="node33" class="node">
<title>32</title>
<polygon fill="none" stroke="black" points="1273.94,-854 1026.94,-854 1026.94,-801 1273.94,-801 1273.94,-854"/>
<text text-anchor="middle" x="1150.44" y="-836.7" font-family="monospace" font-size="14.00">core::fmt::num::imp::fmt_u32</text>
<text text-anchor="middle" x="1150.44" y="-821.7" font-family="monospace" font-size="14.00">max &gt;= 196</text>
<text text-anchor="middle" x="1150.44" y="-806.7" font-family="monospace" font-size="14.00">local = 104</text>
</g>
<!-- 31&#45;&gt;32 -->
<g id="edge46" class="edge">
<title>31&#45;&gt;32</title>
<path fill="none" stroke="black" d="M1072.44,-889.63C1083.75,-880.77 1096.55,-870.74 1108.47,-861.39"/>
<polygon fill="black" stroke="black" points="1110.47,-864.28 1116.18,-855.35 1106.15,-858.77 1110.47,-864.28"/>
</g>
<!-- 32&#45;&gt;24 -->
<g id="edge48" class="edge">
<title>32&#45;&gt;24</title>
<path fill="none" stroke="black" d="M1274.31,-816.91C1443.35,-803.36 1727.63,-778.74 1746.44,-765 1759.72,-755.3 1774.81,-716.92 1784.91,-687.24"/>
<polygon fill="black" stroke="black" points="1788.21,-688.4 1788.04,-677.8 1781.57,-686.19 1788.21,-688.4"/>
</g>
<!-- 32&#45;&gt;33 -->
<g id="edge47" class="edge">
<title>32&#45;&gt;33</title>
<path fill="none" stroke="black" d="M1086.73,-800.6C1072.27,-791.56 1058.75,-779.86 1050.44,-765 1038.95,-744.44 1035.23,-729.99 1050.44,-712 1086.53,-669.33 1242.06,-656.25 1338.08,-652.25"/>
<polygon fill="black" stroke="black" points="1338.11,-655.75 1347.97,-651.87 1337.84,-648.76 1338.11,-655.75"/>
</g>
<!-- 34 -->
<g id="node35" class="node">
<title>34</title>
<polygon fill="none" stroke="black" points="495.07,-765 371.82,-765 371.82,-712 495.07,-712 495.07,-765"/>
<text text-anchor="middle" x="433.44" y="-747.7" font-family="monospace" font-size="14.00">__aeabi_uidiv</text>
<text text-anchor="middle" x="433.44" y="-732.7" font-family="monospace" font-size="14.00">max = 40</text>
<text text-anchor="middle" x="433.44" y="-717.7" font-family="monospace" font-size="14.00">local = 8</text>
</g>
<!-- 32&#45;&gt;34 -->
<g id="edge49" class="edge">
<title>32&#45;&gt;34</title>
<path fill="none" stroke="black" d="M1026.73,-824.86C897.2,-820.87 688.26,-808.01 506.57,-766.59"/>
<polygon fill="black" stroke="black" points="507.48,-763.2 496.95,-764.35 505.9,-770.02 507.48,-763.2"/>
</g>
<!-- 32&#45;&gt;35 -->
<g id="edge50" class="edge">
<title>32&#45;&gt;35</title>
<path fill="none" stroke="black" d="M1274.35,-803.01C1334.84,-791.55 1407.84,-777.71 1470.25,-765.88"/>
<polygon fill="black" stroke="black" points="1470.71,-769.36 1479.88,-764.06 1469.41,-762.48 1470.71,-769.36"/>
</g>
<!-- 36 -->
<g id="node37" class="node">
<title>36</title>
<polygon fill="none" stroke="black" points="1463.32,-765 1059.57,-765 1059.57,-712 1463.32,-712 1463.32,-765"/>
<text text-anchor="middle" x="1261.44" y="-747.7" font-family="monospace" font-size="14.00">core::fmt::Formatter::pad_integral::write_prefix</text>
<text text-anchor="middle" x="1261.44" y="-732.7" font-family="monospace" font-size="14.00">max &gt;= 196</text>
<text text-anchor="middle" x="1261.44" y="-717.7" font-family="monospace" font-size="14.00">local = 24</text>
</g>
<!-- 32&#45;&gt;36 -->
<g id="edge51" class="edge">
<title>32&#45;&gt;36</title>
<path fill="none" stroke="black" d="M1183.44,-800.63C1194.75,-791.77 1207.55,-781.74 1219.47,-772.39"/>
<polygon fill="black" stroke="black" points="1221.47,-775.28 1227.18,-766.35 1217.15,-769.77 1221.47,-775.28"/>
</g>
<!-- 37 -->
<g id="node38" class="node">
<title>37</title>
<polygon fill="none" stroke="black" points="1538.94,-587 1291.94,-587 1291.94,-534 1538.94,-534 1538.94,-587"/>
<text text-anchor="middle" x="1415.44" y="-569.7" font-family="monospace" font-size="14.00">core::fmt::Write::write_char</text>
<text text-anchor="middle" x="1415.44" y="-554.7" font-family="monospace" font-size="14.00">max &gt;= 196</text>
<text text-anchor="middle" x="1415.44" y="-539.7" font-family="monospace" font-size="14.00">local = 16</text>
</g>
<!-- 33&#45;&gt;37 -->
<g id="edge54" class="edge">
<title>33&#45;&gt;37</title>
<path fill="none" stroke="black" d="M1415.44,-622.87C1415.44,-615.24 1415.44,-606.72 1415.44,-598.51"/>
<polygon fill="black" stroke="black" points="1418.94,-598.76 1415.44,-588.76 1411.94,-598.76 1418.94,-598.76"/>
</g>
<!-- 38 -->
<g id="node39" class="node">
<title>38</title>
<polygon fill="none" stroke="black" points="495.44,-676 17.44,-676 17.44,-623 495.44,-623 495.44,-676"/>
<text text-anchor="middle" x="256.44" y="-658.7" font-family="monospace" font-size="14.00">compiler_builtins::int::specialized_div_rem::u32_div_rem</text>
<text text-anchor="middle" x="256.44" y="-643.7" font-family="monospace" font-size="14.00">max = 32</text>
<text text-anchor="middle" x="256.44" y="-628.7" font-family="monospace" font-size="14.00">local = 32</text>
</g>
<!-- 34&#45;&gt;38 -->
<g id="edge57" class="edge">
<title>34&#45;&gt;38</title>
<path fill="none" stroke="black" d="M380.82,-711.63C361.55,-702.16 339.56,-691.35 319.47,-681.48"/>
<polygon fill="black" stroke="black" points="321.05,-678.36 310.53,-677.09 317.96,-684.64 321.05,-678.36"/>
</g>
<!-- 35&#45;&gt;33 -->
<g id="edge56" class="edge">
<title>35&#45;&gt;33</title>
<path fill="none" stroke="black" d="M1551.5,-711.51C1530.1,-701.92 1505.66,-690.96 1483.45,-681"/>
<polygon fill="black" stroke="black" points="1485.02,-677.87 1474.47,-676.97 1482.16,-684.26 1485.02,-677.87"/>
</g>
<!-- 36&#45;&gt;24 -->
<g id="edge53" class="edge">
<title>36&#45;&gt;24</title>
<path fill="none" stroke="black" d="M1421.23,-711.51C1511.33,-696.86 1620.99,-679.03 1698.43,-666.44"/>
<polygon fill="black" stroke="black" points="1698.82,-669.92 1708.13,-664.86 1697.69,-663.01 1698.82,-669.92"/>
</g>
<!-- 36&#45;&gt;33 -->
<g id="edge52" class="edge">
<title>36&#45;&gt;33</title>
<path fill="none" stroke="black" d="M1307.23,-711.63C1323.68,-702.34 1342.43,-691.75 1359.64,-682.03"/>
<polygon fill="black" stroke="black" points="1361.26,-685.13 1368.25,-677.16 1357.82,-679.03 1361.26,-685.13"/>
</g>
<!-- 37&#45;&gt;15 -->
<g id="edge55" class="edge">
<title>37&#45;&gt;15</title>
<path fill="none" stroke="black" d="M1539.31,-535.63C1542.39,-535.08 1545.43,-534.53 1548.44,-534 1655.73,-514.97 1780.61,-495.03 1856.3,-483.19"/>
<polygon fill="black" stroke="black" points="1856.72,-486.67 1866.06,-481.67 1855.64,-479.75 1856.72,-486.67"/>
</g>
<!-- 40 -->
<g id="node41" class="node">
<title>40</title>
<polygon fill="none" stroke="black" points="354.19,-765 90.69,-765 90.69,-712 354.19,-712 354.19,-765"/>
<text text-anchor="middle" x="222.44" y="-747.7" font-family="monospace" font-size="14.00">&lt;T as core::any::Any&gt;::type_id</text>
<text text-anchor="middle" x="222.44" y="-732.7" font-family="monospace" font-size="14.00">max = 0</text>
<text text-anchor="middle" x="222.44" y="-717.7" font-family="monospace" font-size="14.00">local = 0</text>
</g>
<!-- 39&#45;&gt;40 -->
<g id="edge66" class="edge">
<title>39&#45;&gt;40</title>
<path fill="none" stroke="black" d="M299.03,-800.63C287.93,-791.77 275.36,-781.74 263.65,-772.39"/>
<polygon fill="black" stroke="black" points="266.1,-769.86 256.1,-766.36 261.73,-775.34 266.1,-769.86"/>
</g>
<!-- 42 -->
<g id="node43" class="node">
<title>42</title>
<polygon fill="none" stroke="black" points="107.57,-943 17.32,-943 17.32,-890 107.57,-890 107.57,-943"/>
<text text-anchor="middle" x="62.44" y="-925.7" font-family="monospace" font-size="14.00">__udf</text>
<text text-anchor="middle" x="62.44" y="-910.7" font-family="monospace" font-size="14.00">max = 0</text>
<text text-anchor="middle" x="62.44" y="-895.7" font-family="monospace" font-size="14.00">local = 0</text>
</g>
<!-- 41&#45;&gt;42 -->
<g id="edge71" class="edge">
<title>41&#45;&gt;42</title>
<path fill="none" stroke="black" d="M247.9,-981.32C200.17,-967.7 145.01,-951.52 121.44,-943 120.48,-942.65 119.51,-942.29 118.53,-941.93"/>
<polygon fill="black" stroke="black" points="119.96,-938.73 109.37,-938.37 117.42,-945.26 119.96,-938.73"/>
</g>
</g>
</svg>
