<?xml version="1.0" encoding="UTF-8" standalone="no"?>
<!DOCTYPE svg PUBLIC "-//W3C//DTD SVG 1.1//EN"
 "http://www.w3.org/Graphics/SVG/1.1/DTD/svg11.dtd">
<!-- Generated by graphviz version 10.0.1 (0)
 -->
<!-- Pages: 1 -->
<svg width="2136pt" height="328pt"
 viewBox="0.00 0.00 2135.81 328.00" xmlns="http://www.w3.org/2000/svg" xmlns:xlink="http://www.w3.org/1999/xlink">
<g id="graph0" class="graph" transform="scale(1 1) rotate(0) translate(4 324)">
<polygon fill="white" stroke="none" points="-4,4 -4,-324 2131.81,-324 2131.81,4 -4,4"/>
<!-- 0 -->
<g id="node1" class="node">
<title>0</title>
<polygon fill="none" stroke="black" points="175.88,-320 85.62,-320 85.62,-267 175.88,-267 175.88,-320"/>
<text text-anchor="middle" x="130.75" y="-302.7" font-family="monospace" font-size="14.00">Reset</text>
<text text-anchor="middle" x="130.75" y="-287.7" font-family="monospace" font-size="14.00">max = 48</text>
<text text-anchor="middle" x="130.75" y="-272.7" font-family="monospace" font-size="14.00">local = 0</text>
</g>
<!-- 7 -->
<g id="node8" class="node">
<title>7</title>
<polygon fill="none" stroke="black" points="239.88,-231 149.62,-231 149.62,-178 239.88,-178 239.88,-231"/>
<text text-anchor="middle" x="194.75" y="-213.7" font-family="monospace" font-size="14.00">main</text>
<text text-anchor="middle" x="194.75" y="-198.7" font-family="monospace" font-size="14.00">max = 48</text>
<text text-anchor="middle" x="194.75" y="-183.7" font-family="monospace" font-size="14.00">local = 8</text>
</g>
<!-- 0&#45;&gt;7 -->
<g id="edge29" class="edge">
<title>0&#45;&gt;7</title>
<path fill="none" stroke="black" d="M149.61,-266.87C155.74,-258.53 162.64,-249.14 169.18,-240.26"/>
<polygon fill="black" stroke="black" points="171.8,-242.6 174.91,-232.47 166.17,-238.45 171.8,-242.6"/>
</g>
<!-- 10 -->
<g id="node11" class="node">
<title>10</title>
<polygon fill="none" stroke="black" points="131.5,-231 0,-231 0,-178 131.5,-178 131.5,-231"/>
<text text-anchor="middle" x="65.75" y="-213.7" font-family="monospace" font-size="14.00">DefaultPreInit</text>
<text text-anchor="middle" x="65.75" y="-198.7" font-family="monospace" font-size="14.00">max = 0</text>
<text text-anchor="middle" x="65.75" y="-183.7" font-family="monospace" font-size="14.00">local = 0</text>
</g>
<!-- 0&#45;&gt;10 -->
<g id="edge28" class="edge">
<title>0&#45;&gt;10</title>
<path fill="none" stroke="black" d="M111.6,-266.87C105.37,-258.53 98.36,-249.14 91.72,-240.26"/>
<polygon fill="black" stroke="black" points="94.68,-238.38 85.89,-232.46 89.08,-242.57 94.68,-238.38"/>
</g>
<!-- 1 -->
<g id="node2" class="node">
<title>1</title>
<polygon fill="none" stroke="black" points="1480.88,-142 862.62,-142 862.62,-89 1480.88,-89 1480.88,-142"/>
<text text-anchor="middle" x="1171.75" y="-124.7" font-family="monospace" font-size="14.00">heapless::sorted_linked_list::SortedLinkedList&lt;T,Idx,K,_&gt;::push_unchecked</text>
<text text-anchor="middle" x="1171.75" y="-109.7" font-family="monospace" font-size="14.00">max = 32</text>
<text text-anchor="middle" x="1171.75" y="-94.7" font-family="monospace" font-size="14.00">local = 32</text>
</g>
<!-- 2 -->
<g id="node3" class="node">
<title>2</title>
<polygon fill="none" stroke="black" points="1960.75,-142 1614.75,-142 1614.75,-89 1960.75,-89 1960.75,-142"/>
<text text-anchor="middle" x="1787.75" y="-124.7" font-family="monospace" font-size="14.00">concurrency::app::monotonics::Tonic::now</text>
<text text-anchor="middle" x="1787.75" y="-109.7" font-family="monospace" font-size="14.00">max = 24</text>
<text text-anchor="middle" x="1787.75" y="-94.7" font-family="monospace" font-size="14.00">local = 24</text>
</g>
<!-- 11 -->
<g id="node12" class="node">
<title>11</title>
<polygon fill="none" stroke="black" points="353.88,-53 263.62,-53 263.62,0 353.88,0 353.88,-53"/>
<text text-anchor="middle" x="308.75" y="-35.7" font-family="monospace" font-size="14.00">__cpsid</text>
<text text-anchor="middle" x="308.75" y="-20.7" font-family="monospace" font-size="14.00">max = 0</text>
<text text-anchor="middle" x="308.75" y="-5.7" font-family="monospace" font-size="14.00">local = 0</text>
</g>
<!-- 2&#45;&gt;11 -->
<g id="edge7" class="edge">
<title>2&#45;&gt;11</title>
<path fill="none" stroke="black" d="M1614.39,-89.84C1611.49,-89.55 1608.61,-89.27 1605.75,-89 1127.52,-44.25 546.87,-31.39 365.59,-28.33"/>
<polygon fill="black" stroke="black" points="365.8,-24.84 355.74,-28.17 365.68,-31.84 365.8,-24.84"/>
</g>
<!-- 12 -->
<g id="node13" class="node">
<title>12</title>
<polygon fill="none" stroke="black" points="1951.88,-53 1861.62,-53 1861.62,0 1951.88,0 1951.88,-53"/>
<text text-anchor="middle" x="1906.75" y="-35.7" font-family="monospace" font-size="14.00">__cpsie</text>
<text text-anchor="middle" x="1906.75" y="-20.7" font-family="monospace" font-size="14.00">max = 0</text>
<text text-anchor="middle" x="1906.75" y="-5.7" font-family="monospace" font-size="14.00">local = 0</text>
</g>
<!-- 2&#45;&gt;12 -->
<g id="edge8" class="edge">
<title>2&#45;&gt;12</title>
<path fill="none" stroke="black" d="M1823.13,-88.63C1835.37,-79.68 1849.25,-69.54 1862.13,-60.12"/>
<polygon fill="black" stroke="black" points="1864.07,-63.04 1870.08,-54.31 1859.94,-57.39 1864.07,-63.04"/>
</g>
<!-- 14 -->
<g id="node15" class="node">
<title>14</title>
<polygon fill="none" stroke="black" points="1662.12,-53 1555.38,-53 1555.38,0 1662.12,0 1662.12,-53"/>
<text text-anchor="middle" x="1608.75" y="-35.7" font-family="monospace" font-size="14.00">__primask_r</text>
<text text-anchor="middle" x="1608.75" y="-20.7" font-family="monospace" font-size="14.00">max = 0</text>
<text text-anchor="middle" x="1608.75" y="-5.7" font-family="monospace" font-size="14.00">local = 0</text>
</g>
<!-- 2&#45;&gt;14 -->
<g id="edge6" class="edge">
<title>2&#45;&gt;14</title>
<path fill="none" stroke="black" d="M1734.53,-88.63C1714.96,-79.12 1692.6,-68.25 1672.22,-58.35"/>
<polygon fill="black" stroke="black" points="1673.96,-55.3 1663.44,-54.08 1670.9,-61.6 1673.96,-55.3"/>
</g>
<!-- 3 -->
<g id="node4" class="node">
<title>3</title>
<polygon fill="none" stroke="black" points="1245.75,-231 1097.75,-231 1097.75,-178 1245.75,-178 1245.75,-231"/>
<text text-anchor="middle" x="1171.75" y="-213.7" font-family="monospace" font-size="14.00">USART3_4_5_6_7_8</text>
<text text-anchor="middle" x="1171.75" y="-198.7" font-family="monospace" font-size="14.00">max = 96</text>
<text text-anchor="middle" x="1171.75" y="-183.7" font-family="monospace" font-size="14.00">local = 64</text>
</g>
<!-- 3&#45;&gt;1 -->
<g id="edge16" class="edge">
<title>3&#45;&gt;1</title>
<path fill="none" stroke="black" d="M1171.75,-177.87C1171.75,-170.24 1171.75,-161.72 1171.75,-153.51"/>
<polygon fill="black" stroke="black" points="1175.25,-153.76 1171.75,-143.76 1168.25,-153.76 1175.25,-153.76"/>
</g>
<!-- 3&#45;&gt;2 -->
<g id="edge12" class="edge">
<title>3&#45;&gt;2</title>
<path fill="none" stroke="black" d="M1246.05,-193.01C1333.95,-180.59 1483.44,-159.48 1603.14,-142.57"/>
<polygon fill="black" stroke="black" points="1603.35,-146.08 1612.76,-141.21 1602.37,-139.15 1603.35,-146.08"/>
</g>
<!-- 3&#45;&gt;11 -->
<g id="edge14" class="edge">
<title>3&#45;&gt;11</title>
<path fill="none" stroke="black" d="M1097.42,-204.18C889.54,-205.31 313.67,-202.87 256.75,-142 235.54,-119.32 253.95,-86.5 274.5,-61.8"/>
<polygon fill="black" stroke="black" points="276.87,-64.41 280.8,-54.58 271.59,-59.81 276.87,-64.41"/>
</g>
<!-- 3&#45;&gt;12 -->
<g id="edge15" class="edge">
<title>3&#45;&gt;12</title>
<path fill="none" stroke="black" d="M1246.21,-199.1C1442.08,-187.34 1957.52,-155.21 1969.75,-142 1985.75,-124.72 1978.9,-110.71 1969.75,-89 1965.48,-78.86 1958.63,-69.56 1950.98,-61.43"/>
<polygon fill="black" stroke="black" points="1953.47,-58.97 1943.89,-54.45 1948.57,-63.96 1953.47,-58.97"/>
</g>
<!-- 3&#45;&gt;14 -->
<g id="edge13" class="edge">
<title>3&#45;&gt;14</title>
<path fill="none" stroke="black" d="M1097.3,-200.53C981.71,-193.39 779.68,-169.35 853.75,-89 900.09,-38.73 1369.34,-29.55 1543.85,-27.87"/>
<polygon fill="black" stroke="black" points="1543.67,-31.38 1553.64,-27.79 1543.61,-24.38 1543.67,-31.38"/>
</g>
<!-- 4 -->
<g id="node5" class="node">
<title>4</title>
<polygon fill="none" stroke="black" points="1778,-231 1679.5,-231 1679.5,-178 1778,-178 1778,-231"/>
<text text-anchor="middle" x="1728.75" y="-213.7" font-family="monospace" font-size="14.00">USART2</text>
<text text-anchor="middle" x="1728.75" y="-198.7" font-family="monospace" font-size="14.00">max = 96</text>
<text text-anchor="middle" x="1728.75" y="-183.7" font-family="monospace" font-size="14.00">local = 64</text>
</g>
<!-- 4&#45;&gt;1 -->
<g id="edge5" class="edge">
<title>4&#45;&gt;1</title>
<path fill="none" stroke="black" d="M1679.32,-195.78C1605.88,-184.31 1464.24,-162.18 1349.2,-144.22"/>
<polygon fill="black" stroke="black" points="1350.07,-140.81 1339.65,-142.73 1348.99,-147.73 1350.07,-140.81"/>
</g>
<!-- 4&#45;&gt;2 -->
<g id="edge1" class="edge">
<title>4&#45;&gt;2</title>
<path fill="none" stroke="black" d="M1746.13,-177.87C1751.72,-169.62 1758.02,-160.34 1763.99,-151.54"/>
<polygon fill="black" stroke="black" points="1766.72,-153.74 1769.44,-143.5 1760.93,-149.81 1766.72,-153.74"/>
</g>
<!-- 4&#45;&gt;11 -->
<g id="edge3" class="edge">
<title>4&#45;&gt;11</title>
<path fill="none" stroke="black" d="M1679.29,-200.57C1593.09,-195.53 1409.73,-185.07 1254.75,-178 1201.43,-175.57 331.78,-180.44 294.75,-142 275.06,-121.55 281.46,-88.65 291.11,-63.34"/>
<polygon fill="black" stroke="black" points="294.21,-65 294.79,-54.42 287.74,-62.33 294.21,-65"/>
</g>
<!-- 4&#45;&gt;12 -->
<g id="edge4" class="edge">
<title>4&#45;&gt;12</title>
<path fill="none" stroke="black" d="M1778.3,-180.98C1781.47,-179.88 1784.64,-178.88 1787.75,-178 1842.41,-162.6 2003.53,-184.89 2040.75,-142 2056.19,-124.21 2053.47,-108.83 2040.75,-89 2023.61,-62.27 1991.62,-47.01 1963.2,-38.37"/>
<polygon fill="black" stroke="black" points="1964.14,-35 1953.57,-35.68 1962.26,-41.74 1964.14,-35"/>
</g>
<!-- 4&#45;&gt;14 -->
<g id="edge2" class="edge">
<title>4&#45;&gt;14</title>
<path fill="none" stroke="black" d="M1778.36,-181.18C1781.51,-180.03 1784.66,-178.96 1787.75,-178 1866.48,-153.51 1917.41,-205.71 1969.75,-142 1984.7,-123.8 1984.94,-107 1969.75,-89 1950.89,-66.66 1772.71,-44.67 1673.93,-34.06"/>
<polygon fill="black" stroke="black" points="1674.41,-30.59 1664.09,-33.01 1673.67,-37.55 1674.41,-30.59"/>
</g>
<!-- 5 -->
<g id="node6" class="node">
<title>5</title>
<polygon fill="none" stroke="black" points="1895,-231 1796.5,-231 1796.5,-178 1895,-178 1895,-231"/>
<text text-anchor="middle" x="1845.75" y="-213.7" font-family="monospace" font-size="14.00">USART1</text>
<text text-anchor="middle" x="1845.75" y="-198.7" font-family="monospace" font-size="14.00">max = 96</text>
<text text-anchor="middle" x="1845.75" y="-183.7" font-family="monospace" font-size="14.00">local = 64</text>
</g>
<!-- 5&#45;&gt;1 -->
<g id="edge21" class="edge">
<title>5&#45;&gt;1</title>
<path fill="none" stroke="black" d="M1796.24,-180.82C1793.06,-179.77 1789.88,-178.81 1786.75,-178 1755.81,-169.97 1620.45,-156.1 1484.57,-143.55"/>
<polygon fill="black" stroke="black" points="1484.89,-140.07 1474.61,-142.64 1484.25,-147.04 1484.89,-140.07"/>
</g>
<!-- 5&#45;&gt;2 -->
<g id="edge17" class="edge">
<title>5&#45;&gt;2</title>
<path fill="none" stroke="black" d="M1828.66,-177.87C1823.22,-169.71 1817.11,-160.54 1811.3,-151.82"/>
<polygon fill="black" stroke="black" points="1814.22,-149.89 1805.76,-143.51 1808.39,-153.77 1814.22,-149.89"/>
</g>
<!-- 5&#45;&gt;11 -->
<g id="edge19" class="edge">
<title>5&#45;&gt;11</title>
<path fill="none" stroke="black" d="M1796.31,-180.55C1793.11,-179.56 1789.91,-178.69 1786.75,-178 1707.56,-160.6 388.95,-195.19 327.75,-142 306.25,-123.32 302.7,-90.36 303.83,-64.58"/>
<polygon fill="black" stroke="black" points="307.31,-65.06 304.53,-54.83 300.33,-64.56 307.31,-65.06"/>
</g>
<!-- 5&#45;&gt;12 -->
<g id="edge20" class="edge">
<title>5&#45;&gt;12</title>
<path fill="none" stroke="black" d="M1895.33,-181.08C1898.49,-179.96 1901.65,-178.92 1904.75,-178 1950.57,-164.42 2085.92,-178.51 2116.75,-142 2131.95,-124 2130.87,-107.85 2116.75,-89 2098.26,-64.32 2018.8,-46.22 1963.11,-36.27"/>
<polygon fill="black" stroke="black" points="1963.91,-32.85 1953.46,-34.59 1962.71,-39.75 1963.91,-32.85"/>
</g>
<!-- 5&#45;&gt;14 -->
<g id="edge18" class="edge">
<title>5&#45;&gt;14</title>
<path fill="none" stroke="black" d="M1895.32,-182.06C1898.51,-180.69 1901.68,-179.32 1904.75,-178 1942.06,-161.94 1966.39,-175.91 1988.75,-142 2001.72,-122.33 2004.02,-106.94 1988.75,-89 1968.58,-65.3 1776.58,-43.53 1673.49,-33.43"/>
<polygon fill="black" stroke="black" points="1674.08,-29.97 1663.79,-32.49 1673.4,-36.94 1674.08,-29.97"/>
</g>
<!-- 6 -->
<g id="node7" class="node">
<title>6</title>
<polygon fill="none" stroke="black" points="1597,-142 1498.5,-142 1498.5,-89 1597,-89 1597,-142"/>
<text text-anchor="middle" x="1547.75" y="-124.7" font-family="monospace" font-size="14.00">SysTick</text>
<text text-anchor="middle" x="1547.75" y="-109.7" font-family="monospace" font-size="14.00">max = 80</text>
<text text-anchor="middle" x="1547.75" y="-94.7" font-family="monospace" font-size="14.00">local = 80</text>
</g>
<!-- 6&#45;&gt;11 -->
<g id="edge10" class="edge">
<title>6&#45;&gt;11</title>
<path fill="none" stroke="black" d="M1498.16,-91.34C1495.35,-90.45 1492.53,-89.66 1489.75,-89 1272.36,-37.38 570.96,-29.08 365.68,-27.75"/>
<polygon fill="black" stroke="black" points="365.83,-24.25 355.81,-27.69 365.79,-31.25 365.83,-24.25"/>
</g>
<!-- 6&#45;&gt;12 -->
<g id="edge11" class="edge">
<title>6&#45;&gt;12</title>
<path fill="none" stroke="black" d="M1597.48,-91.83C1600.25,-90.82 1603.02,-89.87 1605.75,-89 1688.96,-62.54 1788.83,-44.77 1850.03,-35.4"/>
<polygon fill="black" stroke="black" points="1850.5,-38.87 1859.87,-33.92 1849.46,-31.95 1850.5,-38.87"/>
</g>
<!-- 6&#45;&gt;14 -->
<g id="edge9" class="edge">
<title>6&#45;&gt;14</title>
<path fill="none" stroke="black" d="M1565.72,-88.87C1571.5,-80.62 1578.01,-71.34 1584.18,-62.54"/>
<polygon fill="black" stroke="black" points="1586.95,-64.69 1589.83,-54.49 1581.22,-60.67 1586.95,-64.69"/>
</g>
<!-- 8 -->
<g id="node9" class="node">
<title>8</title>
<polygon fill="none" stroke="black" points="806.62,-142 336.88,-142 336.88,-89 806.62,-89 806.62,-142"/>
<text text-anchor="middle" x="571.75" y="-124.7" font-family="monospace" font-size="14.00">concurrency::app::rtic_ext::main::__rtic_init_resources</text>
<text text-anchor="middle" x="571.75" y="-109.7" font-family="monospace" font-size="14.00">max = 40</text>
<text text-anchor="middle" x="571.75" y="-94.7" font-family="monospace" font-size="14.00">local = 40</text>
</g>
<!-- 7&#45;&gt;8 -->
<g id="edge26" class="edge">
<title>7&#45;&gt;8</title>
<path fill="none" stroke="black" d="M240.23,-193.01C291.54,-181.16 377.18,-161.4 448.55,-144.93"/>
<polygon fill="black" stroke="black" points="448.99,-148.42 457.95,-142.76 447.42,-141.6 448.99,-148.42"/>
</g>
<!-- 7&#45;&gt;11 -->
<g id="edge25" class="edge">
<title>7&#45;&gt;11</title>
<path fill="none" stroke="black" d="M194.77,-177.74C195.96,-153.04 200.92,-115.68 218.75,-89 227.63,-75.7 240.46,-64.49 253.65,-55.42"/>
<polygon fill="black" stroke="black" points="255.5,-58.39 262,-50.02 251.7,-52.51 255.5,-58.39"/>
</g>
<!-- 13 -->
<g id="node14" class="node">
<title>13</title>
<polygon fill="none" stroke="black" points="166.88,-142 76.62,-142 76.62,-89 166.88,-89 166.88,-142"/>
<text text-anchor="middle" x="121.75" y="-124.7" font-family="monospace" font-size="14.00">__nop</text>
<text text-anchor="middle" x="121.75" y="-109.7" font-family="monospace" font-size="14.00">max = 0</text>
<text text-anchor="middle" x="121.75" y="-94.7" font-family="monospace" font-size="14.00">local = 0</text>
</g>
<!-- 7&#45;&gt;13 -->
<g id="edge27" class="edge">
<title>7&#45;&gt;13</title>
<path fill="none" stroke="black" d="M173.24,-177.87C166.18,-169.45 158.2,-159.95 150.68,-150.98"/>
<polygon fill="black" stroke="black" points="153.44,-148.82 144.33,-143.41 148.08,-153.32 153.44,-148.82"/>
</g>
<!-- 8&#45;&gt;11 -->
<g id="edge23" class="edge">
<title>8&#45;&gt;11</title>
<path fill="none" stroke="black" d="M493.2,-88.51C451.87,-74.84 402.16,-58.4 364.77,-46.03"/>
<polygon fill="black" stroke="black" points="366.11,-42.79 355.51,-42.97 363.91,-49.43 366.11,-42.79"/>
</g>
<!-- 8&#45;&gt;12 -->
<g id="edge24" class="edge">
<title>8&#45;&gt;12</title>
<path fill="none" stroke="black" d="M807.11,-92.4C822.89,-91.17 838.55,-90.02 853.75,-89 1216.4,-64.63 1308.33,-80.54 1670.75,-53 1732.06,-48.34 1802.07,-40.45 1849.81,-34.68"/>
<polygon fill="black" stroke="black" points="1850.14,-38.16 1859.64,-33.48 1849.29,-31.22 1850.14,-38.16"/>
</g>
<!-- 8&#45;&gt;14 -->
<g id="edge22" class="edge">
<title>8&#45;&gt;14</title>
<path fill="none" stroke="black" d="M806.99,-90.26C811.62,-89.83 816.21,-89.41 820.75,-89 1089,-64.8 1409.13,-41.56 1543.9,-32.03"/>
<polygon fill="black" stroke="black" points="1543.97,-35.53 1553.7,-31.34 1543.48,-28.55 1543.97,-35.53"/>
</g>
<!-- 9 -->
<g id="node10" class="node">
<title>9</title>
<polygon fill="none" stroke="black" points="1125.62,-320 985.88,-320 985.88,-267 1125.62,-267 1125.62,-320"/>
<text text-anchor="middle" x="1055.75" y="-302.7" font-family="monospace" font-size="14.00">DefaultHandler_</text>
<text text-anchor="middle" x="1055.75" y="-287.7" font-family="monospace" font-size="14.00">max = 0</text>
<text text-anchor="middle" x="1055.75" y="-272.7" font-family="monospace" font-size="14.00">local = 0</text>
</g>
<!-- 15 -->
<g id="node16" class="node">
<title>15</title>
<polygon fill="none" stroke="black" points="2049.12,-320 1876.38,-320 1876.38,-267 2049.12,-267 2049.12,-320"/>
<text text-anchor="middle" x="1962.75" y="-302.7" font-family="monospace" font-size="14.00">HardFaultTrampoline</text>
<text text-anchor="middle" x="1962.75" y="-287.7" font-family="monospace" font-size="14.00">max = 0</text>
<text text-anchor="middle" x="1962.75" y="-272.7" font-family="monospace" font-size="14.00">local = 0</text>
</g>
<!-- 16 -->
<g id="node17" class="node">
<title>16</title>
<polygon fill="none" stroke="black" points="2012,-231 1913.5,-231 1913.5,-178 2012,-178 2012,-231"/>
<text text-anchor="middle" x="1962.75" y="-213.7" font-family="monospace" font-size="14.00">HardFault_</text>
<text text-anchor="middle" x="1962.75" y="-198.7" font-family="monospace" font-size="14.00">max = 0</text>
<text text-anchor="middle" x="1962.75" y="-183.7" font-family="monospace" font-size="14.00">local = 0</text>
</g>
<!-- 15&#45;&gt;16 -->
<g id="edge30" class="edge">
<title>15&#45;&gt;16</title>
<path fill="none" stroke="black" d="M1962.75,-266.87C1962.75,-259.24 1962.75,-250.72 1962.75,-242.51"/>
<polygon fill="black" stroke="black" points="1966.25,-242.76 1962.75,-232.76 1959.25,-242.76 1966.25,-242.76"/>
</g>
</g>
</svg>
