<?xml version="1.0" encoding="UTF-8" standalone="no"?>
<!DOCTYPE svg PUBLIC "-//W3C//DTD SVG 1.1//EN"
 "http://www.w3.org/Graphics/SVG/1.1/DTD/svg11.dtd">
<!-- Generated by graphviz version 10.0.1 (0)
 -->
<!-- Pages: 1 -->
<svg width="3387pt" height="506pt"
 viewBox="0.00 0.00 3387.38 506.00" xmlns="http://www.w3.org/2000/svg" xmlns:xlink="http://www.w3.org/1999/xlink">
<g id="graph0" class="graph" transform="scale(1 1) rotate(0) translate(4 502)">
<polygon fill="white" stroke="none" points="-4,4 -4,-502 3383.38,-502 3383.38,4 -4,4"/>
<!-- 0 -->
<g id="node1" class="node">
<title>0</title>
<polygon fill="none" stroke="black" points="1993.12,-498 1902.88,-498 1902.88,-445 1993.12,-445 1993.12,-498"/>
<text text-anchor="middle" x="1948" y="-480.7" font-family="monospace" font-size="14.00">Reset</text>
<text text-anchor="middle" x="1948" y="-465.7" font-family="monospace" font-size="14.00">max = 80</text>
<text text-anchor="middle" x="1948" y="-450.7" font-family="monospace" font-size="14.00">local = 0</text>
</g>
<!-- 10 -->
<g id="node11" class="node">
<title>10</title>
<polygon fill="none" stroke="black" points="1044.25,-409 945.75,-409 945.75,-356 1044.25,-356 1044.25,-409"/>
<text text-anchor="middle" x="995" y="-391.7" font-family="monospace" font-size="14.00">main</text>
<text text-anchor="middle" x="995" y="-376.7" font-family="monospace" font-size="14.00">max = 80</text>
<text text-anchor="middle" x="995" y="-361.7" font-family="monospace" font-size="14.00">local = 16</text>
</g>
<!-- 0&#45;&gt;10 -->
<g id="edge37" class="edge">
<title>0&#45;&gt;10</title>
<path fill="none" stroke="black" d="M1902.68,-466.36C1746.93,-452.14 1233.52,-405.27 1056.02,-389.07"/>
<polygon fill="black" stroke="black" points="1056.35,-385.59 1046.08,-388.16 1055.72,-392.56 1056.35,-385.59"/>
</g>
<!-- 13 -->
<g id="node14" class="node">
<title>13</title>
<polygon fill="none" stroke="black" points="2619.75,-409 2488.25,-409 2488.25,-356 2619.75,-356 2619.75,-409"/>
<text text-anchor="middle" x="2554" y="-391.7" font-family="monospace" font-size="14.00">DefaultPreInit</text>
<text text-anchor="middle" x="2554" y="-376.7" font-family="monospace" font-size="14.00">max = 0</text>
<text text-anchor="middle" x="2554" y="-361.7" font-family="monospace" font-size="14.00">local = 0</text>
</g>
<!-- 0&#45;&gt;13 -->
<g id="edge36" class="edge">
<title>0&#45;&gt;13</title>
<path fill="none" stroke="black" d="M1993.3,-468.5C2083.82,-463.8 2293.39,-449.45 2476.76,-409.29"/>
<polygon fill="black" stroke="black" points="2477.49,-412.72 2486.49,-407.13 2475.97,-405.89 2477.49,-412.72"/>
</g>
<!-- 1 -->
<g id="node2" class="node">
<title>1</title>
<polygon fill="none" stroke="black" points="412,-320 0,-320 0,-267 412,-267 412,-320"/>
<text text-anchor="middle" x="206" y="-302.7" font-family="monospace" font-size="14.00">core::iter::traits::iterator::Iterator::for_each</text>
<text text-anchor="middle" x="206" y="-287.7" font-family="monospace" font-size="14.00">max = 0</text>
<text text-anchor="middle" x="206" y="-272.7" font-family="monospace" font-size="14.00">local = 0</text>
</g>
<!-- 2 -->
<g id="node3" class="node">
<title>2</title>
<polygon fill="none" stroke="black" points="677.5,-320 430.5,-320 430.5,-267 677.5,-267 677.5,-320"/>
<text text-anchor="middle" x="554" y="-302.7" font-family="monospace" font-size="14.00">cortex_m::interrupt::disable</text>
<text text-anchor="middle" x="554" y="-287.7" font-family="monospace" font-size="14.00">max = 8</text>
<text text-anchor="middle" x="554" y="-272.7" font-family="monospace" font-size="14.00">local = 8</text>
</g>
<!-- 15 -->
<g id="node16" class="node">
<title>15</title>
<polygon fill="none" stroke="black" points="1185.12,-231 1094.88,-231 1094.88,-178 1185.12,-178 1185.12,-231"/>
<text text-anchor="middle" x="1140" y="-213.7" font-family="monospace" font-size="14.00">__cpsid</text>
<text text-anchor="middle" x="1140" y="-198.7" font-family="monospace" font-size="14.00">max = 0</text>
<text text-anchor="middle" x="1140" y="-183.7" font-family="monospace" font-size="14.00">local = 0</text>
</g>
<!-- 2&#45;&gt;15 -->
<g id="edge4" class="edge">
<title>2&#45;&gt;15</title>
<path fill="none" stroke="black" d="M677.71,-269.35C682.53,-268.54 687.31,-267.75 692,-267 832.24,-244.43 998.03,-223.04 1083.2,-212.44"/>
<polygon fill="black" stroke="black" points="1083.43,-215.94 1092.93,-211.23 1082.57,-208.99 1083.43,-215.94"/>
</g>
<!-- 3 -->
<g id="node4" class="node">
<title>3</title>
<polygon fill="none" stroke="black" points="2730.12,-320 2111.88,-320 2111.88,-267 2730.12,-267 2730.12,-320"/>
<text text-anchor="middle" x="2421" y="-302.7" font-family="monospace" font-size="14.00">heapless::sorted_linked_list::SortedLinkedList&lt;T,Idx,K,_&gt;::push_unchecked</text>
<text text-anchor="middle" x="2421" y="-287.7" font-family="monospace" font-size="14.00">max = 32</text>
<text text-anchor="middle" x="2421" y="-272.7" font-family="monospace" font-size="14.00">local = 32</text>
</g>
<!-- 4 -->
<g id="node5" class="node">
<title>4</title>
<polygon fill="none" stroke="black" points="1711.62,-320 1390.38,-320 1390.38,-267 1711.62,-267 1711.62,-320"/>
<text text-anchor="middle" x="1551" y="-302.7" font-family="monospace" font-size="14.00">reaction::app::monotonics::Tonic::now</text>
<text text-anchor="middle" x="1551" y="-287.7" font-family="monospace" font-size="14.00">max = 24</text>
<text text-anchor="middle" x="1551" y="-272.7" font-family="monospace" font-size="14.00">local = 24</text>
</g>
<!-- 4&#45;&gt;15 -->
<g id="edge21" class="edge">
<title>4&#45;&gt;15</title>
<path fill="none" stroke="black" d="M1428.24,-266.51C1351.36,-250.24 1255.92,-230.04 1196.47,-217.45"/>
<polygon fill="black" stroke="black" points="1197.43,-214.08 1186.92,-215.43 1195.98,-220.93 1197.43,-214.08"/>
</g>
<!-- 16 -->
<g id="node17" class="node">
<title>16</title>
<polygon fill="none" stroke="black" points="1824.12,-231 1733.88,-231 1733.88,-178 1824.12,-178 1824.12,-231"/>
<text text-anchor="middle" x="1779" y="-213.7" font-family="monospace" font-size="14.00">__cpsie</text>
<text text-anchor="middle" x="1779" y="-198.7" font-family="monospace" font-size="14.00">max = 0</text>
<text text-anchor="middle" x="1779" y="-183.7" font-family="monospace" font-size="14.00">local = 0</text>
</g>
<!-- 4&#45;&gt;16 -->
<g id="edge22" class="edge">
<title>4&#45;&gt;16</title>
<path fill="none" stroke="black" d="M1619.1,-266.51C1652.2,-253.88 1691.5,-238.89 1722.85,-226.92"/>
<polygon fill="black" stroke="black" points="1724.08,-230.2 1732.18,-223.37 1721.58,-223.66 1724.08,-230.2"/>
</g>
<!-- 17 -->
<g id="node18" class="node">
<title>17</title>
<polygon fill="none" stroke="black" points="1604.38,-231 1497.62,-231 1497.62,-178 1604.38,-178 1604.38,-231"/>
<text text-anchor="middle" x="1551" y="-213.7" font-family="monospace" font-size="14.00">__primask_r</text>
<text text-anchor="middle" x="1551" y="-198.7" font-family="monospace" font-size="14.00">max = 0</text>
<text text-anchor="middle" x="1551" y="-183.7" font-family="monospace" font-size="14.00">local = 0</text>
</g>
<!-- 4&#45;&gt;17 -->
<g id="edge20" class="edge">
<title>4&#45;&gt;17</title>
<path fill="none" stroke="black" d="M1551,-266.87C1551,-259.24 1551,-250.72 1551,-242.51"/>
<polygon fill="black" stroke="black" points="1554.5,-242.76 1551,-232.76 1547.5,-242.76 1554.5,-242.76"/>
</g>
<!-- 5 -->
<g id="node6" class="node">
<title>5</title>
<polygon fill="none" stroke="black" points="2056.38,-320 1883.62,-320 1883.62,-267 2056.38,-267 2056.38,-320"/>
<text text-anchor="middle" x="1970" y="-302.7" font-family="monospace" font-size="14.00">reaction::app::idle</text>
<text text-anchor="middle" x="1970" y="-287.7" font-family="monospace" font-size="14.00">max = 64</text>
<text text-anchor="middle" x="1970" y="-272.7" font-family="monospace" font-size="14.00">local = 24</text>
</g>
<!-- 5&#45;&gt;15 -->
<g id="edge27" class="edge">
<title>5&#45;&gt;15</title>
<path fill="none" stroke="black" d="M1883.29,-274.56C1867.91,-271.76 1852.02,-269.1 1837,-267 1713.42,-249.75 1339.33,-220.58 1196.37,-209.73"/>
<polygon fill="black" stroke="black" points="1197.02,-206.27 1186.78,-209 1196.49,-213.25 1197.02,-206.27"/>
</g>
<!-- 5&#45;&gt;16 -->
<g id="edge29" class="edge">
<title>5&#45;&gt;16</title>
<path fill="none" stroke="black" d="M1912.95,-266.51C1888.23,-255.26 1859.39,-242.12 1834.81,-230.92"/>
<polygon fill="black" stroke="black" points="1836.49,-227.84 1825.94,-226.88 1833.59,-234.21 1836.49,-227.84"/>
</g>
<!-- 5&#45;&gt;17 -->
<g id="edge26" class="edge">
<title>5&#45;&gt;17</title>
<path fill="none" stroke="black" d="M1883.35,-270.07C1878.84,-269.01 1874.37,-267.98 1870,-267 1782.51,-247.43 1680.68,-228.45 1616.05,-216.88"/>
<polygon fill="black" stroke="black" points="1616.77,-213.45 1606.31,-215.14 1615.54,-220.34 1616.77,-213.45"/>
</g>
<!-- 18 -->
<g id="node19" class="node">
<title>18</title>
<polygon fill="none" stroke="black" points="2015.12,-231 1924.88,-231 1924.88,-178 2015.12,-178 2015.12,-231"/>
<text text-anchor="middle" x="1970" y="-213.7" font-family="monospace" font-size="14.00">__wfi</text>
<text text-anchor="middle" x="1970" y="-198.7" font-family="monospace" font-size="14.00">max = 0</text>
<text text-anchor="middle" x="1970" y="-183.7" font-family="monospace" font-size="14.00">local = 0</text>
</g>
<!-- 5&#45;&gt;18 -->
<g id="edge28" class="edge">
<title>5&#45;&gt;18</title>
<path fill="none" stroke="black" d="M1970,-266.87C1970,-259.24 1970,-250.72 1970,-242.51"/>
<polygon fill="black" stroke="black" points="1973.5,-242.76 1970,-232.76 1966.5,-242.76 1973.5,-242.76"/>
</g>
<!-- 22 -->
<g id="node23" class="node">
<title>22</title>
<polygon fill="none" stroke="black" points="2825.62,-231 2702.38,-231 2702.38,-178 2825.62,-178 2825.62,-231"/>
<text text-anchor="middle" x="2764" y="-213.7" font-family="monospace" font-size="14.00">__aeabi_uidiv</text>
<text text-anchor="middle" x="2764" y="-198.7" font-family="monospace" font-size="14.00">max = 40</text>
<text text-anchor="middle" x="2764" y="-183.7" font-family="monospace" font-size="14.00">local = 8</text>
</g>
<!-- 5&#45;&gt;22 -->
<g id="edge38" class="edge">
<title>5&#45;&gt;22</title>
<path fill="none" stroke="black" d="M2056.72,-274.62C2072.1,-271.81 2087.99,-269.13 2103,-267 2315.52,-236.81 2568.66,-218 2690.85,-209.99"/>
<polygon fill="black" stroke="black" points="2690.99,-213.48 2700.74,-209.34 2690.54,-206.5 2690.99,-213.48"/>
</g>
<!-- 6 -->
<g id="node7" class="node">
<title>6</title>
<polygon fill="none" stroke="black" points="1828.25,-320 1729.75,-320 1729.75,-267 1828.25,-267 1828.25,-320"/>
<text text-anchor="middle" x="1779" y="-302.7" font-family="monospace" font-size="14.00">EXTI0_1</text>
<text text-anchor="middle" x="1779" y="-287.7" font-family="monospace" font-size="14.00">max = 32</text>
<text text-anchor="middle" x="1779" y="-272.7" font-family="monospace" font-size="14.00">local = 32</text>
</g>
<!-- 6&#45;&gt;15 -->
<g id="edge2" class="edge">
<title>6&#45;&gt;15</title>
<path fill="none" stroke="black" d="M1729.37,-269.51C1726.56,-268.58 1723.76,-267.73 1721,-267 1622.85,-240.91 1322.75,-218.01 1196.7,-209.27"/>
<polygon fill="black" stroke="black" points="1197.14,-205.79 1186.92,-208.59 1196.66,-212.77 1197.14,-205.79"/>
</g>
<!-- 6&#45;&gt;16 -->
<g id="edge3" class="edge">
<title>6&#45;&gt;16</title>
<path fill="none" stroke="black" d="M1779,-266.87C1779,-259.24 1779,-250.72 1779,-242.51"/>
<polygon fill="black" stroke="black" points="1782.5,-242.76 1779,-232.76 1775.5,-242.76 1782.5,-242.76"/>
</g>
<!-- 6&#45;&gt;17 -->
<g id="edge1" class="edge">
<title>6&#45;&gt;17</title>
<path fill="none" stroke="black" d="M1729.42,-270.44C1726.58,-269.26 1723.76,-268.1 1721,-267 1686.31,-253.12 1647.12,-238.85 1615.12,-227.55"/>
<polygon fill="black" stroke="black" points="1616.59,-224.36 1605.99,-224.34 1614.26,-230.96 1616.59,-224.36"/>
</g>
<!-- 7 -->
<g id="node8" class="node">
<title>7</title>
<polygon fill="none" stroke="black" points="2470.25,-409 2371.75,-409 2371.75,-356 2470.25,-356 2470.25,-409"/>
<text text-anchor="middle" x="2421" y="-391.7" font-family="monospace" font-size="14.00">USART2</text>
<text text-anchor="middle" x="2421" y="-376.7" font-family="monospace" font-size="14.00">max = 168</text>
<text text-anchor="middle" x="2421" y="-361.7" font-family="monospace" font-size="14.00">local = 72</text>
</g>
<!-- 7&#45;&gt;3 -->
<g id="edge11" class="edge">
<title>7&#45;&gt;3</title>
<path fill="none" stroke="black" d="M2421,-355.87C2421,-348.24 2421,-339.72 2421,-331.51"/>
<polygon fill="black" stroke="black" points="2424.5,-331.76 2421,-321.76 2417.5,-331.76 2424.5,-331.76"/>
</g>
<!-- 7&#45;&gt;4 -->
<g id="edge7" class="edge">
<title>7&#45;&gt;4</title>
<path fill="none" stroke="black" d="M2371.67,-378.21C2258.84,-370.46 1973.03,-349.56 1723.15,-320.22"/>
<polygon fill="black" stroke="black" points="1723.88,-316.79 1713.54,-319.09 1723.06,-323.74 1723.88,-316.79"/>
</g>
<!-- 14 -->
<g id="node15" class="node">
<title>14</title>
<polygon fill="none" stroke="black" points="3046.12,-320 2823.88,-320 2823.88,-267 3046.12,-267 3046.12,-320"/>
<text text-anchor="middle" x="2935" y="-302.7" font-family="monospace" font-size="14.00">test_app::get_random_byte</text>
<text text-anchor="middle" x="2935" y="-287.7" font-family="monospace" font-size="14.00">max = 96</text>
<text text-anchor="middle" x="2935" y="-272.7" font-family="monospace" font-size="14.00">local = 40</text>
</g>
<!-- 7&#45;&gt;14 -->
<g id="edge6" class="edge">
<title>7&#45;&gt;14</title>
<path fill="none" stroke="black" d="M2470.64,-358.52C2473.44,-357.59 2476.24,-356.74 2479,-356 2621.96,-317.78 2663.79,-342.81 2810,-320 2810.84,-319.87 2811.69,-319.74 2812.53,-319.6"/>
<polygon fill="black" stroke="black" points="2812.88,-323.09 2822.17,-318.01 2811.74,-316.19 2812.88,-323.09"/>
</g>
<!-- 7&#45;&gt;15 -->
<g id="edge9" class="edge">
<title>7&#45;&gt;15</title>
<path fill="none" stroke="black" d="M2371.61,-379.9C2096.99,-370.97 770.17,-327.44 763,-320 667.26,-220.65 956.43,-206.77 1083.4,-205.36"/>
<polygon fill="black" stroke="black" points="1083.31,-208.86 1093.28,-205.27 1083.25,-201.86 1083.31,-208.86"/>
</g>
<!-- 7&#45;&gt;16 -->
<g id="edge10" class="edge">
<title>7&#45;&gt;16</title>
<path fill="none" stroke="black" d="M2470.66,-358.62C2473.46,-357.66 2476.25,-356.78 2479,-356 2535.12,-340.11 2700.69,-363.98 2739,-320 2754.47,-302.24 2755.29,-284.02 2739,-267 2707.35,-233.94 1961.47,-236.2 1916,-231 1889.32,-227.95 1860.02,-222.75 1835.39,-217.84"/>
<polygon fill="black" stroke="black" points="1836.4,-214.47 1825.91,-215.91 1835.01,-221.33 1836.4,-214.47"/>
</g>
<!-- 7&#45;&gt;17 -->
<g id="edge8" class="edge">
<title>7&#45;&gt;17</title>
<path fill="none" stroke="black" d="M2371.66,-380.99C2253.63,-378.98 1958.62,-369.05 1875,-320 1850,-305.34 1861.24,-282.89 1837,-267 1801.27,-243.58 1688.97,-224.38 1616.18,-213.97"/>
<polygon fill="black" stroke="black" points="1616.74,-210.51 1606.35,-212.58 1615.77,-217.44 1616.74,-210.51"/>
</g>
<!-- 21 -->
<g id="node22" class="node">
<title>21</title>
<polygon fill="none" stroke="black" points="3212.5,-320 3097.5,-320 3097.5,-267 3212.5,-267 3212.5,-320"/>
<text text-anchor="middle" x="3155" y="-302.7" font-family="monospace" font-size="14.00">__aeabi_lmul</text>
<text text-anchor="middle" x="3155" y="-287.7" font-family="monospace" font-size="14.00">max = 44</text>
<text text-anchor="middle" x="3155" y="-272.7" font-family="monospace" font-size="14.00">local = 8</text>
</g>
<!-- 7&#45;&gt;21 -->
<g id="edge40" class="edge">
<title>7&#45;&gt;21</title>
<path fill="none" stroke="black" d="M2470.6,-358.37C2473.41,-357.48 2476.22,-356.68 2479,-356 2728.25,-295.45 2801.62,-359.86 3055,-320 3065.14,-318.4 3075.75,-316.25 3086.11,-313.86"/>
<polygon fill="black" stroke="black" points="3086.84,-317.28 3095.74,-311.54 3085.2,-310.48 3086.84,-317.28"/>
</g>
<!-- 7&#45;&gt;22 -->
<g id="edge39" class="edge">
<title>7&#45;&gt;22</title>
<path fill="none" stroke="black" d="M2470.65,-358.57C2473.45,-357.63 2476.24,-356.76 2479,-356 2542.25,-338.61 2728.53,-369.13 2772,-320 2790.43,-299.16 2786.38,-267 2778.89,-242.06"/>
<polygon fill="black" stroke="black" points="2782.22,-241 2775.75,-232.61 2775.58,-243.2 2782.22,-241"/>
</g>
<!-- 8 -->
<g id="node9" class="node">
<title>8</title>
<polygon fill="none" stroke="black" points="1600.25,-409 1501.75,-409 1501.75,-356 1600.25,-356 1600.25,-409"/>
<text text-anchor="middle" x="1551" y="-391.7" font-family="monospace" font-size="14.00">USART1</text>
<text text-anchor="middle" x="1551" y="-376.7" font-family="monospace" font-size="14.00">max = 96</text>
<text text-anchor="middle" x="1551" y="-361.7" font-family="monospace" font-size="14.00">local = 64</text>
</g>
<!-- 8&#45;&gt;3 -->
<g id="edge34" class="edge">
<title>8&#45;&gt;3</title>
<path fill="none" stroke="black" d="M1600.58,-376.54C1704.84,-366.12 1953.32,-341.27 2149.7,-321.63"/>
<polygon fill="black" stroke="black" points="2149.97,-325.12 2159.57,-320.64 2149.27,-318.16 2149.97,-325.12"/>
</g>
<!-- 8&#45;&gt;4 -->
<g id="edge33" class="edge">
<title>8&#45;&gt;4</title>
<path fill="none" stroke="black" d="M1551,-355.87C1551,-348.24 1551,-339.72 1551,-331.51"/>
<polygon fill="black" stroke="black" points="1554.5,-331.76 1551,-321.76 1547.5,-331.76 1554.5,-331.76"/>
</g>
<!-- 8&#45;&gt;15 -->
<g id="edge31" class="edge">
<title>8&#45;&gt;15</title>
<path fill="none" stroke="black" d="M1501.47,-378.69C1325.93,-368.64 743.21,-334.23 730,-320 713.98,-302.73 714.63,-284.85 730,-267 774.94,-214.81 981.82,-206.28 1083.4,-205.3"/>
<polygon fill="black" stroke="black" points="1083.17,-208.8 1093.15,-205.23 1083.12,-201.8 1083.17,-208.8"/>
</g>
<!-- 8&#45;&gt;16 -->
<g id="edge32" class="edge">
<title>8&#45;&gt;16</title>
<path fill="none" stroke="black" d="M1600.43,-379.25C1723.22,-373.16 2034.43,-354.45 2065,-320 2080.64,-302.38 2079.8,-285.32 2065,-267 2057.75,-258.03 1916.71,-230.81 1835.45,-215.77"/>
<polygon fill="black" stroke="black" points="1836.36,-212.37 1825.89,-214 1835.09,-219.26 1836.36,-212.37"/>
</g>
<!-- 8&#45;&gt;17 -->
<g id="edge30" class="edge">
<title>8&#45;&gt;17</title>
<path fill="none" stroke="black" d="M1501.61,-378.42C1461.76,-373.03 1408.04,-358.54 1381,-320 1367.47,-300.72 1367.47,-286.28 1381,-267 1404.61,-233.36 1448.55,-218.04 1485.84,-211.1"/>
<polygon fill="black" stroke="black" points="1486.39,-214.56 1495.68,-209.46 1485.24,-207.66 1486.39,-214.56"/>
</g>
<!-- 9 -->
<g id="node10" class="node">
<title>9</title>
<polygon fill="none" stroke="black" points="1334.25,-320 1235.75,-320 1235.75,-267 1334.25,-267 1334.25,-320"/>
<text text-anchor="middle" x="1285" y="-302.7" font-family="monospace" font-size="14.00">SysTick</text>
<text text-anchor="middle" x="1285" y="-287.7" font-family="monospace" font-size="14.00">max = 72</text>
<text text-anchor="middle" x="1285" y="-272.7" font-family="monospace" font-size="14.00">local = 72</text>
</g>
<!-- 9&#45;&gt;15 -->
<g id="edge13" class="edge">
<title>9&#45;&gt;15</title>
<path fill="none" stroke="black" d="M1241.89,-266.63C1226.54,-257.42 1209.08,-246.95 1193,-237.3"/>
<polygon fill="black" stroke="black" points="1194.87,-234.34 1184.49,-232.2 1191.27,-240.34 1194.87,-234.34"/>
</g>
<!-- 9&#45;&gt;16 -->
<g id="edge14" class="edge">
<title>9&#45;&gt;16</title>
<path fill="none" stroke="black" d="M1334.59,-278.25C1349.43,-274.28 1365.81,-270.18 1381,-267 1385.17,-266.13 1613.57,-230.95 1722.44,-214.2"/>
<polygon fill="black" stroke="black" points="1722.69,-217.7 1732.04,-212.72 1721.62,-210.78 1722.69,-217.7"/>
</g>
<!-- 9&#45;&gt;17 -->
<g id="edge12" class="edge">
<title>9&#45;&gt;17</title>
<path fill="none" stroke="black" d="M1334.71,-271.9C1339.18,-270.19 1343.66,-268.53 1348,-267 1393.71,-250.86 1446.08,-235.06 1486.18,-223.52"/>
<polygon fill="black" stroke="black" points="1487.04,-226.91 1495.69,-220.79 1485.11,-220.18 1487.04,-226.91"/>
</g>
<!-- 10&#45;&gt;1 -->
<g id="edge17" class="edge">
<title>10&#45;&gt;1</title>
<path fill="none" stroke="black" d="M945.46,-376.38C847.85,-366.26 623.48,-342.78 423.57,-320.28"/>
<polygon fill="black" stroke="black" points="424.09,-316.82 413.76,-319.18 423.3,-323.78 424.09,-316.82"/>
</g>
<!-- 10&#45;&gt;2 -->
<g id="edge16" class="edge">
<title>10&#45;&gt;2</title>
<path fill="none" stroke="black" d="M945.27,-371.69C883.55,-359.51 775.84,-338.26 689.03,-321.14"/>
<polygon fill="black" stroke="black" points="689.72,-317.71 679.23,-319.21 688.36,-324.57 689.72,-317.71"/>
</g>
<!-- 10&#45;&gt;5 -->
<g id="edge19" class="edge">
<title>10&#45;&gt;5</title>
<path fill="none" stroke="black" d="M1044.56,-379.9C1174.86,-375.25 1537.66,-359.49 1837,-320 1848.39,-318.5 1860.28,-316.64 1872.07,-314.61"/>
<polygon fill="black" stroke="black" points="1872.58,-318.08 1881.82,-312.89 1871.37,-311.18 1872.58,-318.08"/>
</g>
<!-- 11 -->
<g id="node12" class="node">
<title>11</title>
<polygon fill="none" stroke="black" points="1217.5,-320 772.5,-320 772.5,-267 1217.5,-267 1217.5,-320"/>
<text text-anchor="middle" x="995" y="-302.7" font-family="monospace" font-size="14.00">reaction::app::rtic_ext::main::__rtic_init_resources</text>
<text text-anchor="middle" x="995" y="-287.7" font-family="monospace" font-size="14.00">max = 32</text>
<text text-anchor="middle" x="995" y="-272.7" font-family="monospace" font-size="14.00">local = 32</text>
</g>
<!-- 10&#45;&gt;11 -->
<g id="edge18" class="edge">
<title>10&#45;&gt;11</title>
<path fill="none" stroke="black" d="M995,-355.87C995,-348.24 995,-339.72 995,-331.51"/>
<polygon fill="black" stroke="black" points="998.5,-331.76 995,-321.76 991.5,-331.76 998.5,-331.76"/>
</g>
<!-- 11&#45;&gt;15 -->
<g id="edge24" class="edge">
<title>11&#45;&gt;15</title>
<path fill="none" stroke="black" d="M1038.11,-266.63C1053.46,-257.42 1070.92,-246.95 1087,-237.3"/>
<polygon fill="black" stroke="black" points="1088.73,-240.34 1095.51,-232.2 1085.13,-234.34 1088.73,-240.34"/>
</g>
<!-- 11&#45;&gt;16 -->
<g id="edge25" class="edge">
<title>11&#45;&gt;16</title>
<path fill="none" stroke="black" d="M1217.87,-267.93C1220.93,-267.62 1223.98,-267.31 1227,-267 1398.42,-249.59 1442,-252.09 1613,-231 1649.63,-226.48 1690.62,-220.2 1722.7,-215"/>
<polygon fill="black" stroke="black" points="1722.86,-218.52 1732.16,-213.45 1721.73,-211.61 1722.86,-218.52"/>
</g>
<!-- 11&#45;&gt;17 -->
<g id="edge23" class="edge">
<title>11&#45;&gt;17</title>
<path fill="none" stroke="black" d="M1161.07,-266.51C1270.1,-249.45 1406.71,-228.08 1485.9,-215.69"/>
<polygon fill="black" stroke="black" points="1486.32,-219.16 1495.66,-214.16 1485.24,-212.25 1486.32,-219.16"/>
</g>
<!-- 12 -->
<g id="node13" class="node">
<title>12</title>
<polygon fill="none" stroke="black" points="2842.88,-498 2703.12,-498 2703.12,-445 2842.88,-445 2842.88,-498"/>
<text text-anchor="middle" x="2773" y="-480.7" font-family="monospace" font-size="14.00">DefaultHandler_</text>
<text text-anchor="middle" x="2773" y="-465.7" font-family="monospace" font-size="14.00">max = 0</text>
<text text-anchor="middle" x="2773" y="-450.7" font-family="monospace" font-size="14.00">local = 0</text>
</g>
<!-- 24 -->
<g id="node25" class="node">
<title>24</title>
<polygon fill="none" stroke="black" points="2992,-231 2844,-231 2844,-178 2992,-178 2992,-231"/>
<text text-anchor="middle" x="2918" y="-213.7" font-family="monospace" font-size="14.00">__aeabi_uidivmod</text>
<text text-anchor="middle" x="2918" y="-198.7" font-family="monospace" font-size="14.00">max = 56</text>
<text text-anchor="middle" x="2918" y="-183.7" font-family="monospace" font-size="14.00">local = 8</text>
</g>
<!-- 14&#45;&gt;24 -->
<g id="edge41" class="edge">
<title>14&#45;&gt;24</title>
<path fill="none" stroke="black" d="M2929.99,-266.87C2928.5,-259.24 2926.84,-250.72 2925.23,-242.51"/>
<polygon fill="black" stroke="black" points="2928.67,-241.88 2923.32,-232.74 2921.8,-243.22 2928.67,-241.88"/>
</g>
<!-- 19 -->
<g id="node20" class="node">
<title>19</title>
<polygon fill="none" stroke="black" points="3331.62,-231 3010.38,-231 3010.38,-178 3331.62,-178 3331.62,-231"/>
<text text-anchor="middle" x="3171" y="-213.7" font-family="monospace" font-size="14.00">compiler_builtins::int::mul::Mul::mul</text>
<text text-anchor="middle" x="3171" y="-198.7" font-family="monospace" font-size="14.00">max = 36</text>
<text text-anchor="middle" x="3171" y="-183.7" font-family="monospace" font-size="14.00">local = 36</text>
</g>
<!-- 20 -->
<g id="node21" class="node">
<title>20</title>
<polygon fill="none" stroke="black" points="3080,-53 2602,-53 2602,0 3080,0 3080,-53"/>
<text text-anchor="middle" x="2841" y="-35.7" font-family="monospace" font-size="14.00">compiler_builtins::int::specialized_div_rem::u32_div_rem</text>
<text text-anchor="middle" x="2841" y="-20.7" font-family="monospace" font-size="14.00">max = 32</text>
<text text-anchor="middle" x="2841" y="-5.7" font-family="monospace" font-size="14.00">local = 32</text>
</g>
<!-- 21&#45;&gt;19 -->
<g id="edge35" class="edge">
<title>21&#45;&gt;19</title>
<path fill="none" stroke="black" d="M3159.71,-266.87C3161.12,-259.24 3162.68,-250.72 3164.19,-242.51"/>
<polygon fill="black" stroke="black" points="3167.62,-243.21 3165.99,-232.74 3160.74,-241.94 3167.62,-243.21"/>
</g>
<!-- 22&#45;&gt;20 -->
<g id="edge15" class="edge">
<title>22&#45;&gt;20</title>
<path fill="none" stroke="black" d="M2775.36,-177.53C2788.54,-147.42 2810.34,-97.59 2825.17,-63.69"/>
<polygon fill="black" stroke="black" points="2828.31,-65.24 2829.11,-54.68 2821.9,-62.43 2828.31,-65.24"/>
</g>
<!-- 23 -->
<g id="node24" class="node">
<title>23</title>
<polygon fill="none" stroke="black" points="2958.5,-142 2843.5,-142 2843.5,-89 2958.5,-89 2958.5,-142"/>
<text text-anchor="middle" x="2901" y="-124.7" font-family="monospace" font-size="14.00">__udivmodsi4</text>
<text text-anchor="middle" x="2901" y="-109.7" font-family="monospace" font-size="14.00">max = 48</text>
<text text-anchor="middle" x="2901" y="-94.7" font-family="monospace" font-size="14.00">local = 16</text>
</g>
<!-- 23&#45;&gt;20 -->
<g id="edge5" class="edge">
<title>23&#45;&gt;20</title>
<path fill="none" stroke="black" d="M2883.32,-88.87C2877.64,-80.62 2871.23,-71.34 2865.17,-62.54"/>
<polygon fill="black" stroke="black" points="2868.18,-60.74 2859.62,-54.5 2862.41,-64.71 2868.18,-60.74"/>
</g>
<!-- 24&#45;&gt;23 -->
<g id="edge42" class="edge">
<title>24&#45;&gt;23</title>
<path fill="none" stroke="black" d="M2912.99,-177.87C2911.5,-170.24 2909.84,-161.72 2908.23,-153.51"/>
<polygon fill="black" stroke="black" points="2911.67,-152.88 2906.32,-143.74 2904.8,-154.22 2911.67,-152.88"/>
</g>
<!-- 25 -->
<g id="node26" class="node">
<title>25</title>
<polygon fill="none" stroke="black" points="3379.38,-498 3206.62,-498 3206.62,-445 3379.38,-445 3379.38,-498"/>
<text text-anchor="middle" x="3293" y="-480.7" font-family="monospace" font-size="14.00">HardFaultTrampoline</text>
<text text-anchor="middle" x="3293" y="-465.7" font-family="monospace" font-size="14.00">max = 0</text>
<text text-anchor="middle" x="3293" y="-450.7" font-family="monospace" font-size="14.00">local = 0</text>
</g>
<!-- 26 -->
<g id="node27" class="node">
<title>26</title>
<polygon fill="none" stroke="black" points="3342.25,-409 3243.75,-409 3243.75,-356 3342.25,-356 3342.25,-409"/>
<text text-anchor="middle" x="3293" y="-391.7" font-family="monospace" font-size="14.00">HardFault_</text>
<text text-anchor="middle" x="3293" y="-376.7" font-family="monospace" font-size="14.00">max = 0</text>
<text text-anchor="middle" x="3293" y="-361.7" font-family="monospace" font-size="14.00">local = 0</text>
</g>
<!-- 25&#45;&gt;26 -->
<g id="edge43" class="edge">
<title>25&#45;&gt;26</title>
<path fill="none" stroke="black" d="M3293,-444.87C3293,-437.24 3293,-428.72 3293,-420.51"/>
<polygon fill="black" stroke="black" points="3296.5,-420.76 3293,-410.76 3289.5,-420.76 3296.5,-420.76"/>
</g>
</g>
</svg>
